<svg width="78" height="79" viewBox="0 0 78 79" fill="none" xmlns="http://www.w3.org/2000/svg">
<path d="M39 78C60.5391 78 78 60.5391 78 39C78 17.4609 60.5391 0 39 0C17.4609 0 0 17.4609 0 39C0 60.5391 17.4609 78 39 78Z" fill="#54BAED"/>
<path d="M75.1109 53.4445L57.3837 28.8889L25.3433 55.6768L29.8079 76.5556C56.9109 82.4384 71.3029 63.5994 75.1109 53.4445Z" fill="#3A8DB7" stroke="#3A8DB7"/>
<path d="M32.4998 21.7979L30.8615 24.2909H26.3563C24.9949 24.2909 23.8989 25.4028 23.8989 26.7839V54.2071C23.8989 55.5883 24.9949 56.7001 26.3563 56.7001H48.473C49.8344 56.7001 50.9304 55.5883 50.9304 54.2071V42.9885L48.473 45.4816V54.2071H26.3563V26.7839H29.2234L27.585 29.2769H47.2443L45.606 26.7839H48.473V28.0304L50.7137 25.7573C50.3293 24.8913 49.4731 24.2909 48.473 24.2909H43.9678L42.3295 21.7979H32.4998ZM33.7286 24.2909H41.1008L42.3295 26.7839H32.4998L33.7286 24.2909Z" fill="#ECF0F1"/>
<path fill-rule="evenodd" clip-rule="evenodd" d="M27.5854 40.4956L37.4151 50.4677L58.303 29.277L55.8456 25.5375L37.4151 44.2351L31.2716 38.0026L27.5854 40.4956Z" fill="#ECF0F1"/>
</svg>
