<svg width="85" height="58" viewBox="0 0 85 58" fill="none" xmlns="http://www.w3.org/2000/svg">
<path d="M1.09697 56.9039V40.3868H10.5686V41.1389H9.00209C8.69918 41.1389 8.4536 41.3843 8.4536 41.687V49.7937C8.4536 50.0964 8.69918 50.3418 9.00209 50.3418H13.2316C13.5345 50.3418 13.7801 50.0964 13.7801 49.7937V44.9178H14.6551V56.9039H1.09697ZM11.6655 43.8216V41.2655L13.9708 43.8216H11.6655ZM11.117 44.9178H12.6831V49.2456H9.55057V42.2351H10.5686V44.3697C10.5686 44.6724 10.8141 44.9178 11.117 44.9178ZM15.611 44.0027L11.5244 39.4717C11.4205 39.3564 11.2724 39.2905 11.117 39.2905H0.548484C0.245575 39.2905 0 39.5359 0 39.8387V57.452C0 57.7548 0.245575 58.0002 0.548484 58.0002H15.2036C15.5065 58.0002 15.7521 57.7548 15.7521 57.452V44.3697C15.7521 44.2342 15.7019 44.1034 15.611 44.0027Z" fill="#54BAED"/>
<path d="M6.20122 55.0557H3.06865V48.0455H6.20122V55.0557ZM6.74971 46.9492H2.52016C2.2174 46.9492 1.97168 47.1944 1.97168 47.4974V55.6039C1.97168 55.9068 2.2174 56.152 2.52016 56.152H6.74971C7.05247 56.152 7.29819 55.9068 7.29819 55.6039V47.4974C7.29819 47.1944 7.05247 46.9492 6.74971 46.9492Z" fill="#54BAED"/>
<path d="M6.20122 44.677H3.06865V42.2349H6.20122V44.677ZM6.74971 41.1387H2.52016C2.2174 41.1387 1.97168 41.3839 1.97168 41.6868V45.2252C1.97168 45.5277 2.2174 45.7733 2.52016 45.7733H6.74971C7.05247 45.7733 7.29819 45.5277 7.29819 45.2252V41.6868C7.29819 41.3839 7.05247 41.1387 6.74971 41.1387Z" fill="#54BAED"/>
<path d="M12.6833 55.0552H9.55107V52.6131H12.6833V55.0552ZM13.2318 51.5168H9.00259C8.69946 51.5168 8.4541 51.762 8.4541 52.065V55.6034C8.4541 55.9059 8.69946 56.1515 9.00259 56.1515H13.2318C13.5345 56.1515 13.7802 55.9059 13.7802 55.6034V52.065C13.7802 51.762 13.5345 51.5168 13.2318 51.5168Z" fill="#54BAED"/>
<path d="M71.2008 39.2905L70.3246 40.6269H67.9153C67.1872 40.6269 66.6011 41.223 66.6011 41.9633V56.6638C66.6011 57.4041 67.1872 58.0002 67.9153 58.0002H79.7431C80.4712 58.0002 81.0573 57.4041 81.0573 56.6638V50.65L79.7431 51.9864V56.6638H67.9153V41.9633H69.4485L68.5724 43.2997H79.086L78.2099 41.9633H79.7431V42.6315L80.9414 41.413C80.7359 40.9488 80.278 40.6269 79.7431 40.6269H77.3338L76.4576 39.2905H71.2008ZM71.8579 40.6269H75.8005L76.4576 41.9633H71.2008L71.8579 40.6269Z" fill="#54BAED"/>
<path fill-rule="evenodd" clip-rule="evenodd" d="M68.5728 49.3138L73.8296 54.6595L85.0003 43.3L83.6861 41.2954L73.8296 51.3184L70.5441 47.9774L68.5728 49.3138Z" fill="#54BAED"/>
<path d="M47.7599 39.29H35.9235V41.8519H34V48.6509H35.9226V57.9997H50.9983V42.3175L47.7599 39.29ZM44.1739 44.9628V45.5199H42.7941V46.9271H42.1281V43.6244H44.3951V44.1831H42.7941V44.9628H44.1739V44.9628ZM41.5617 45.3077C41.5617 45.5798 41.5277 45.8138 41.4605 46.0105C41.3778 46.2502 41.2587 46.4453 41.1072 46.5935C40.9897 46.7085 40.8358 46.7951 40.6405 46.8574C40.4898 46.9036 40.2938 46.9279 40.0491 46.9279H38.7948V43.6243H40.0118C40.2864 43.6243 40.4971 43.6446 40.6413 43.6867C40.8341 43.745 40.9994 43.8454 41.1371 43.9911C41.2757 44.1369 41.3802 44.3134 41.4539 44.5263C41.5261 44.7393 41.5617 44.9976 41.5617 45.3077ZM36.382 45.681V46.9287H35.716V46.9279V43.6243H36.7847C37.1898 43.6243 37.4539 43.6413 37.5755 43.6745C37.7634 43.7247 37.9247 43.8316 38.0502 43.9952C38.1798 44.1628 38.2431 44.3773 38.2431 44.638C38.2431 44.8421 38.2066 45.0105 38.1329 45.149C38.0599 45.2898 37.9668 45.3967 37.8517 45.4769C37.7407 45.5538 37.6265 45.6072 37.5098 45.6315C37.3485 45.6623 37.1209 45.6809 36.8187 45.6809H36.382V45.681ZM49.9045 56.9017C48.9339 56.9017 37.9863 56.9017 37.0172 56.9017C37.0172 56.4054 37.0172 52.5294 37.0172 48.6509H46.2051V41.8519H37.018C37.018 41.0811 37.018 40.5475 37.018 40.3839C37.9855 40.3839 46.9335 40.3839 47.3297 40.3839C47.5922 40.6317 49.6161 42.5223 49.9061 42.792C49.9045 43.2365 49.9045 55.9058 49.9045 56.9017Z" fill="#54BAED"/>
<path d="M40.6158 44.3706C40.5348 44.2929 40.4327 44.2427 40.3088 44.216C40.2132 44.1941 40.0333 44.1836 39.7627 44.1836H39.4629V46.369H39.9587C40.1443 46.369 40.278 46.3593 40.3614 46.3374C40.4708 46.3107 40.5599 46.2629 40.6304 46.1998C40.7033 46.135 40.76 46.0297 40.8062 45.8824C40.8508 45.7334 40.8743 45.5309 40.8743 45.2767C40.8743 45.0241 40.8516 44.8257 40.8062 44.6913C40.7592 44.5536 40.696 44.4476 40.6158 44.3706Z" fill="#54BAED"/>
<path d="M37.4477 44.3528C37.3781 44.2751 37.2881 44.2273 37.1804 44.2063C37.1034 44.1909 36.9414 44.1836 36.7032 44.1836H36.3823V45.1204H36.7437C37.007 45.1204 37.1812 45.1042 37.2695 45.0686C37.3586 45.0346 37.4283 44.9811 37.4794 44.9074C37.5296 44.8337 37.5531 44.7487 37.5531 44.6499C37.5539 44.531 37.5215 44.4322 37.4477 44.3528Z" fill="#54BAED"/>
<path d="M54.4907 0C54.4042 0.122639 54.325 0.251072 54.2299 0.366468C51.1972 4.04949 48.1635 7.73204 45.1256 11.4107C44.9792 11.5879 44.9125 11.7622 44.914 11.9949C44.9232 13.6443 44.9178 15.2936 44.9207 16.943C44.9207 17.0782 44.9062 17.1772 44.7715 17.2607C43.0421 18.333 41.3176 19.4127 39.5916 20.4903C39.552 20.515 39.5095 20.5357 39.4268 20.5806C39.4268 20.4594 39.4268 20.3682 39.4268 20.2764C39.4268 17.4847 39.4283 14.6925 39.422 11.9008C39.4215 11.7762 39.3829 11.6241 39.3061 11.5309C36.1599 7.7021 33.0074 3.87761 29.8559 0.0531113C29.8405 0.0347637 29.8231 0.0178647 29.8066 0C38.0347 0 46.2627 0 54.4907 0Z" fill="#54BAED"/>
<path d="M5.35596 29H74.285V35.5484" stroke="#54BAED"/>
<path d="M5.35596 28.9999V34.8467M41.2177 23.8547V34.8467" stroke="#54BAED"/>
</svg>
