<svg width="69" height="69" viewBox="0 0 69 69" fill="none" xmlns="http://www.w3.org/2000/svg">
<g clip-path="url(#clip0_46_462)">
<path d="M34.6024 1.48331e-05C53.7528 0.0174413 69.0305 15.4311 69.0043 34.7091C68.9782 53.717 53.5263 69.0349 34.4063 69C15.3212 68.9652 0.00435726 53.6081 9.25076e-07 34.5087C-0.00435541 15.3222 15.3779 -0.0174116 34.6024 1.48331e-05ZM2.06055 34.4085C1.956 52.2793 16.4103 66.8391 34.3541 66.935C52.2673 67.0352 66.7739 52.6845 66.9438 34.7004C67.1137 16.7555 52.5418 2.07812 34.5414 2.06069C16.6151 2.03891 2.16074 16.4332 2.06055 34.4085Z" fill="#54BAED"/>
<path d="M24.9572 34.5436C24.9572 30.3351 24.9355 26.1223 24.9616 21.9138C24.979 19.3608 25.9766 18.7727 28.1984 20.0448C35.4952 24.2272 42.7834 28.4313 50.0584 32.6572C52.1582 33.8771 52.1843 35.1143 50.1281 36.308C42.7921 40.5732 35.4429 44.8165 28.0807 49.0337C25.9984 50.2274 24.9834 49.6044 24.966 47.1734C24.9398 42.9649 24.9616 38.7521 24.9572 34.5436Z" fill="#54BAED"/>
</g>
<defs>
<clipPath id="clip0_46_462">
<rect width="69" height="69" fill="white"/>
</clipPath>
</defs>
</svg>
