<svg width="70" height="70" viewBox="0 0 70 70" fill="none" xmlns="http://www.w3.org/2000/svg">
<path d="M34.9165 69.9968C16.1879 70.2323 -0.497323 54.3579 0.0113355 34.056C0.463185 15.9964 15.2195 0.461622 33.9866 0.0107432C54.6887 -0.486537 70.1791 16.3527 69.9982 35.357C69.8164 54.4402 53.9021 70.2761 34.9165 69.9968ZM67.42 34.9788C67.4593 17.1713 52.8891 2.61884 34.9637 2.56105C17.2035 2.50415 2.61843 17.1135 2.57298 35.0051C2.52841 52.8975 17.1056 67.4762 35.1193 67.457C52.7432 67.4369 67.3492 53.1138 67.42 34.9788Z" fill="#54BAED"/>
<path d="M35.0601 51.3253C31.4785 51.3253 27.8969 51.3296 24.3153 51.3165C24.0715 51.3156 23.7944 51.2395 23.5908 51.1073C21.4521 49.7231 20.7154 47.7147 20.9679 45.2371C21.1191 43.7575 21.7502 42.4661 22.4179 41.1905C23.589 38.9528 25.198 37.1309 27.5657 36.0978C28.5891 35.6513 29.6527 35.3886 30.7828 35.3957C33.389 35.4105 35.9961 35.4438 38.6006 35.3904C42.0598 35.3204 44.6267 36.9138 46.6045 39.5989C47.8465 41.2842 48.6881 43.1718 49.0027 45.2625C49.2964 47.2157 48.7187 48.8905 47.3334 50.2896C46.3048 51.3279 46.303 51.3261 44.8461 51.3261C41.5826 51.3253 38.3209 51.3253 35.0601 51.3253Z" fill="#54BAED"/>
<path d="M34.9263 18.6202C38.9816 18.5082 42.5038 22.1003 42.3054 26.3447C42.1533 29.6059 39.0716 33.43 34.5645 33.2339C31.4662 33.0991 27.438 30.1268 27.7168 25.4745C27.9397 21.7615 31.246 18.5152 34.9263 18.6202Z" fill="#54BAED"/>
</svg>
