<svg width="221" height="169" viewBox="0 0 221 169" fill="none" xmlns="http://www.w3.org/2000/svg">
<path d="M183.296 25.606V11.8837H37.685V17.986V54.1065H13.335V100.064H43.6149" stroke="#25A0DE" stroke-width="1.0658" stroke-miterlimit="10" stroke-dasharray="3.2 3.2"/>
<path d="M25.9805 127.943V127.211" stroke="#25A0DE" stroke-width="1.0658" stroke-miterlimit="10"/>
<path d="M25.9805 125.831V109.933" stroke="#25A0DE" stroke-width="1.0658" stroke-miterlimit="10" stroke-dasharray="3.02 3.02"/>
<path d="M25.9805 109.238V108.511H25.2495" stroke="#25A0DE" stroke-width="1.0658" stroke-miterlimit="10"/>
<path d="M23.8652 108.511H2.42529" stroke="#25A0DE" stroke-width="1.0658" stroke-miterlimit="10" stroke-dasharray="3.03 3.03"/>
<path d="M1.73096 108.511H1V107.78" stroke="#25A0DE" stroke-width="1.0658" stroke-miterlimit="10"/>
<path d="M1 106.294V83.3064" stroke="#25A0DE" stroke-width="1.0658" stroke-miterlimit="10" stroke-dasharray="3.24 3.24"/>
<path d="M1 82.5613V81.83H1.73096" stroke="#25A0DE" stroke-width="1.0658" stroke-miterlimit="10"/>
<path d="M3.14258 81.83H30.6357" stroke="#25A0DE" stroke-width="1.0658" stroke-miterlimit="10" stroke-dasharray="3.09 3.09"/>
<path d="M31.3394 81.8299H32.0703V81.1031" stroke="#25A0DE" stroke-width="1.0658" stroke-miterlimit="10"/>
<path d="M32.0703 79.6588V19.7688" stroke="#25A0DE" stroke-width="1.0658" stroke-miterlimit="10" stroke-dasharray="3.16 3.16"/>
<path d="M32.0703 19.0511V18.3197H32.8013" stroke="#25A0DE" stroke-width="1.0658" stroke-miterlimit="10"/>
<path d="M34.2725 18.3197H83.6121" stroke="#25A0DE" stroke-width="1.0658" stroke-miterlimit="10" stroke-dasharray="3.22 3.22"/>
<path d="M84.3477 18.3197H85.0786V17.5884" stroke="#25A0DE" stroke-width="1.0658" stroke-miterlimit="10"/>
<path d="M85.0786 16.1439V2.45361" stroke="#25A0DE" stroke-width="1.0658" stroke-miterlimit="10" stroke-dasharray="3.15 3.15"/>
<path d="M85.0786 1.73137V1H85.805" stroke="#25A0DE" stroke-width="1.0658" stroke-miterlimit="10"/>
<path d="M87.2715 1H109.972" stroke="#25A0DE" stroke-width="1.0658" stroke-miterlimit="10" stroke-dasharray="3.21 3.21"/>
<path d="M110.703 1H111.434V1.73137" stroke="#25A0DE" stroke-width="1.0658" stroke-miterlimit="10"/>
<path d="M111.434 3.2489V17.6432" stroke="#25A0DE" stroke-width="1.0658" stroke-miterlimit="10" stroke-dasharray="3.31 3.31"/>
<path d="M111.434 18.3975V19.1288H112.165" stroke="#25A0DE" stroke-width="1.0658" stroke-miterlimit="10"/>
<path d="M113.641 19.1288H136.556" stroke="#25A0DE" stroke-width="1.0658" stroke-miterlimit="10" stroke-dasharray="3.24 3.24"/>
<path d="M137.296 19.1288H138.027V19.8602" stroke="#25A0DE" stroke-width="1.0658" stroke-miterlimit="10"/>
<path d="M138.027 21.5332V24.0381" stroke="#25A0DE" stroke-width="1.0658" stroke-miterlimit="10" stroke-dasharray="3.66 3.66"/>
<path d="M138.027 24.8746V25.606H138.758" stroke="#25A0DE" stroke-width="1.0658" stroke-miterlimit="10"/>
<path d="M140.17 25.606H181.857" stroke="#25A0DE" stroke-width="1.0658" stroke-miterlimit="10" stroke-dasharray="3.09 3.09"/>
<path d="M182.565 25.606H183.296V26.3373" stroke="#25A0DE" stroke-width="1.0658" stroke-miterlimit="10"/>
<path d="M183.296 27.663V34.9721" stroke="#25A0DE" stroke-width="1.0658" stroke-miterlimit="10" stroke-dasharray="2.91 2.91"/>
<path d="M183.296 35.6349V36.3663H184.023" stroke="#25A0DE" stroke-width="1.0658" stroke-miterlimit="10"/>
<path d="M185.562 36.3662H206.326" stroke="#25A0DE" stroke-width="1.0658" stroke-miterlimit="10" stroke-dasharray="3.37 3.37"/>
<path d="M207.094 36.3662H207.825V37.0976" stroke="#25A0DE" stroke-width="1.0658" stroke-miterlimit="10"/>
<path d="M207.825 38.5741V58.5542" stroke="#25A0DE" stroke-width="1.0658" stroke-miterlimit="10" stroke-dasharray="3.24 3.24"/>
<path d="M207.825 59.29V60.0214H207.094" stroke="#25A0DE" stroke-width="1.0658" stroke-miterlimit="10"/>
<path d="M205.508 60.0215H190.451" stroke="#25A0DE" stroke-width="1.0658" stroke-miterlimit="10" stroke-dasharray="3.47 3.47"/>
<path d="M189.66 60.0215H188.929V60.7529" stroke="#25A0DE" stroke-width="1.0658" stroke-miterlimit="10"/>
<path d="M188.929 62.1836V115.752" stroke="#25A0DE" stroke-width="1.0658" stroke-miterlimit="10" stroke-dasharray="3.12 3.12"/>
<path d="M188.929 116.465V117.196" stroke="#25A0DE" stroke-width="1.0658" stroke-miterlimit="10"/>
<path d="M204.695 161.654H15.126V168.758H204.695V161.654Z" fill="#3A8DB7"/>
<path d="M180.615 136.504H39.2065L15.126 161.654H204.695L180.615 136.504Z" fill="#1F7099"/>
<path d="M109.035 156.105C147.672 156.105 178.993 153.172 178.993 149.555C178.993 145.937 147.672 143.004 109.035 143.004C70.399 143.004 39.0781 145.937 39.0781 149.555C39.0781 153.172 70.399 156.105 109.035 156.105Z" fill="#3A8DB7"/>
<path d="M95.0196 126.567L92.0044 147.498H127.812L124.422 126.567H95.0196Z" fill="#115F86"/>
<path d="M140.257 150.515H79.5688V152.023H140.257V150.515Z" fill="#115F86"/>
<path d="M92.0043 147.498L79.5688 150.515H140.252L127.812 147.498H92.0043Z" fill="#25A0DE"/>
<path d="M179.865 115.788H39.9556V43.1862C39.9556 39.9865 42.5505 37.3901 45.7484 37.3901H174.073C177.275 37.3901 179.865 39.9865 179.865 43.1862V115.788Z" fill="#0C4460"/>
<path d="M174.095 129.204H45.7256C42.5368 129.204 39.9556 126.622 39.9556 123.431V115.788H179.865V123.431C179.865 126.622 177.284 129.204 174.095 129.204Z" fill="#25A0DE"/>
<path d="M174.708 41.9155H45.1182V110.934H174.708V41.9155Z" fill="#AEDEF5"/>
<path d="M112.64 121.964C112.64 123.472 111.416 124.697 109.908 124.697C108.401 124.697 107.176 123.472 107.176 121.964C107.176 120.455 108.401 119.23 109.908 119.23C111.42 119.23 112.64 120.451 112.64 121.964Z" fill="#0C4460"/>
<path d="M111.434 49.7914H65.5483V103.382H111.434V49.7914Z" fill="#25A0DE"/>
<path d="M104.801 57.1005H72.1772V60.0214H104.801V57.1005Z" fill="#E4EAFE"/>
<path d="M104.801 62.4578H72.1772V65.3787H104.801V62.4578Z" fill="#E4EAFE"/>
<path d="M104.801 67.8196H72.1772V70.7405H104.801V67.8196Z" fill="#E4EAFE"/>
<path d="M104.801 73.1769H72.1772V76.0978H104.801V73.1769Z" fill="#E4EAFE"/>
<path d="M104.801 78.5342H72.1772V81.4551H104.801V78.5342Z" fill="#E4EAFE"/>
<path d="M104.801 83.896H72.1772V86.8169H104.801V83.896Z" fill="#E4EAFE"/>
<path d="M104.801 89.2533H72.1772V92.1742H104.801V89.2533Z" fill="#E4EAFE"/>
<path d="M104.801 94.6151H72.1772V97.536H104.801V94.6151Z" fill="#E4EAFE"/>
<path d="M142.331 69.2321V64.5605H139.425C139.179 63.5 138.768 62.4989 138.219 61.5984L140.289 59.5277L136.99 56.2274L134.935 58.2844C134.035 57.7222 133.043 57.3016 131.988 57.0456V54.1156H127.319V57.0228C126.259 57.2696 125.258 57.6765 124.358 58.2296L122.289 56.1589L118.991 59.4592L121.046 61.5161C120.484 62.4166 120.064 63.4086 119.808 64.4645H116.88V69.1361H119.785C120.032 70.1966 120.443 71.1976 120.992 72.0981L118.922 74.1688L122.22 77.4691L124.276 75.4122C125.172 75.9744 126.168 76.3949 127.223 76.6509V79.581H131.892V76.6738C132.952 76.4269 133.952 76.0155 134.852 75.467L136.922 77.5377L140.22 74.2374L138.164 72.1804C138.726 71.2799 139.147 70.288 139.403 69.2321H142.331ZM129.603 71.3302C127.127 71.3302 125.117 69.3189 125.117 66.8414C125.117 64.3639 127.127 62.3526 129.603 62.3526C132.079 62.3526 134.089 64.3639 134.089 66.8414C134.089 69.3235 132.079 71.3302 129.603 71.3302Z" fill="#0C4460"/>
<path d="M159.737 83.5532V79.8781H157.448C157.256 79.0416 156.932 78.2554 156.498 77.5469L158.129 75.915L155.529 73.3141L153.912 74.9322C153.204 74.4888 152.422 74.1597 151.591 73.954V71.6456H147.918V73.9357C147.082 74.1277 146.296 74.4523 145.583 74.8865L143.953 73.2546L141.353 75.8556L142.97 77.4737C142.527 78.1822 142.198 78.9639 141.993 79.7958H139.686V83.4709H141.974C142.166 84.3075 142.491 85.0937 142.925 85.8068L141.294 87.4386L143.893 90.0396L145.51 88.4214C146.218 88.8648 147 89.1985 147.831 89.3996V91.708H151.504V89.4179C152.34 89.2259 153.126 88.9014 153.839 88.4671L155.47 90.099L158.069 87.498L156.452 85.8799C156.895 85.1714 157.224 84.3897 157.43 83.5578H159.737V83.5532ZM149.718 85.208C147.767 85.208 146.186 83.6264 146.186 81.6745C146.186 79.7227 147.767 78.1411 149.718 78.1411C151.669 78.1411 153.249 79.7227 153.249 81.6745C153.249 83.6264 151.669 85.208 149.718 85.208Z" fill="#0C4460"/>
<path d="M139.622 92.0599V89.4498H138C137.863 88.8556 137.634 88.2979 137.328 87.7951L138.484 86.6386L136.638 84.7919L135.492 85.9393C134.989 85.6239 134.436 85.3907 133.847 85.2445V83.608H131.238V85.2308C130.645 85.3679 130.087 85.5964 129.585 85.9073L128.429 84.7508L126.583 86.5975L127.73 87.7448C127.415 88.2477 127.182 88.8007 127.035 89.3904H125.4V92.0005H127.022C127.159 92.5947 127.387 93.1524 127.698 93.6552L126.542 94.8117L128.388 96.6584L129.534 95.5111C130.037 95.8265 130.59 96.0596 131.179 96.2059V97.8423H133.788V96.2196C134.382 96.0824 134.939 95.8539 135.441 95.5431L136.597 96.6995L138.443 94.8528L137.296 93.7055C137.611 93.2027 137.844 92.6496 137.991 92.0599H139.622ZM132.513 93.2347C131.129 93.2347 130.01 92.1102 130.01 90.7297C130.01 89.3447 131.133 88.2202 132.513 88.2202C133.897 88.2202 135.017 89.3447 135.017 90.7297C135.017 92.1102 133.897 93.2347 132.513 93.2347Z" fill="#0C4460"/>
<path opacity="0.24" d="M106.614 41.9155L78.751 110.929H94.1742L121.786 41.9155H106.614Z" fill="white"/>
<path opacity="0.24" d="M131.376 41.9155L105.367 110.929H111.562L138.027 41.9155H131.376Z" fill="white"/>
<path d="M154.638 27.3476C154.482 27.3476 154.323 27.311 154.172 27.2379C153.199 26.7625 152.244 27.215 152.203 27.2333C151.673 27.4893 151.033 27.2744 150.773 26.7488C150.512 26.2231 150.718 25.5877 151.239 25.3226C151.316 25.2814 153.162 24.3627 155.108 25.3134C155.638 25.574 155.862 26.2139 155.602 26.7442C155.414 27.1282 155.035 27.3476 154.638 27.3476Z" fill="#4DB4E8"/>
<path d="M157.233 24.4404C157.023 24.4404 156.808 24.3764 156.621 24.2484C153.181 21.8349 149.882 24.2073 149.85 24.2347C149.375 24.5867 148.704 24.4861 148.352 24.0061C148 23.5308 148.101 22.8588 148.58 22.5068C150.147 21.3504 154.099 19.8602 157.85 22.4931C158.334 22.8314 158.453 23.4988 158.11 23.9833C157.905 24.2804 157.571 24.4404 157.233 24.4404Z" fill="#4DB4E8"/>
<path d="M159.832 21.7206C159.604 21.7206 159.371 21.6475 159.179 21.4966C152.806 16.569 147.607 21.2315 147.388 21.4326C146.954 21.8303 146.278 21.8075 145.876 21.3732C145.474 20.939 145.496 20.267 145.926 19.8648C145.994 19.8008 152.646 13.7395 160.486 19.8008C160.952 20.1619 161.038 20.8338 160.678 21.3046C160.472 21.5789 160.152 21.7206 159.832 21.7206Z" fill="#4DB4E8"/>
<path d="M195.389 139.334L196.618 139.338C203.485 139.05 208.853 133.451 208.853 126.572C208.853 119.687 203.485 114.093 196.618 113.8L195.403 113.795C195.398 113.8 195.394 113.8 195.389 113.805C188.605 114.166 183.296 119.761 183.296 126.572C183.296 133.378 188.6 138.973 195.389 139.334ZM187.673 134.831C188.482 134.242 189.359 133.739 190.286 133.328C191.163 135.165 192.388 136.788 193.923 138.164C191.561 137.725 189.368 136.559 187.673 134.831ZM195.576 138.241C193.708 136.838 192.2 135.014 191.204 132.957C192.607 132.445 194.073 132.157 195.576 132.089V138.241ZM195.576 131.101C193.936 131.17 192.333 131.49 190.802 132.052C190.222 130.603 189.88 129.067 189.784 127.481L195.576 127.477V131.101ZM195.576 126.489L189.752 126.494C189.761 124.871 190.026 123.28 190.547 121.763C192.15 122.394 193.84 122.755 195.576 122.828V126.489ZM198.053 138.196C199.661 136.77 200.926 135.074 201.812 133.154C202.808 133.556 203.75 134.068 204.622 134.681C202.863 136.536 200.552 137.766 198.053 138.196ZM205.275 133.931C204.321 133.254 203.284 132.688 202.192 132.24C202.776 130.722 203.119 129.122 203.21 127.472L207.82 127.467C207.642 129.844 206.765 132.07 205.275 133.931ZM205.645 119.692C207.08 121.685 207.843 124.025 207.861 126.485L203.242 126.489C203.233 124.807 202.964 123.152 202.434 121.571C203.571 121.073 204.65 120.446 205.645 119.692ZM205.033 118.915C204.12 119.605 203.133 120.181 202.091 120.638C201.209 118.472 199.821 116.52 198.048 114.938C200.771 115.4 203.224 116.794 205.033 118.915ZM196.563 114.993C198.624 116.579 200.209 118.645 201.168 121.004C199.688 121.534 198.139 121.818 196.563 121.854V114.993ZM196.563 122.842C198.254 122.81 199.917 122.503 201.511 121.932C201.995 123.399 202.242 124.931 202.251 126.489L196.563 126.494V122.842ZM196.563 127.477L202.219 127.472C202.128 128.999 201.808 130.484 201.26 131.892C199.748 131.385 198.167 131.115 196.559 131.083V127.477H196.563ZM196.563 132.075C198.039 132.107 199.487 132.349 200.876 132.806C199.903 134.877 198.418 136.706 196.563 138.136V132.075ZM195.576 114.892V121.84C193.968 121.767 192.397 121.429 190.903 120.839C191.894 118.499 193.502 116.451 195.576 114.892ZM193.923 114.97C192.223 116.492 190.876 118.371 189.998 120.446C189.025 119.985 188.107 119.413 187.257 118.746C189.012 116.771 191.355 115.446 193.923 114.97ZM186.631 119.514C187.563 120.25 188.573 120.871 189.637 121.374C189.066 123.015 188.774 124.734 188.765 126.498L184.283 126.503C184.297 123.957 185.11 121.548 186.631 119.514ZM184.32 127.486L188.797 127.481C188.893 129.195 189.258 130.855 189.889 132.422C188.865 132.875 187.897 133.437 187.006 134.095C185.434 132.203 184.507 129.927 184.32 127.486Z" fill="#25A0DE"/>
<path d="M53.9942 76.5869H17.7524V84.2343H53.9942V76.5869Z" fill="#25A0DE"/>
<path d="M24.0754 79.9969C24.0754 81.3042 23.0155 82.3601 21.7135 82.3601C20.4069 82.3601 19.3516 81.2997 19.3516 79.9969C19.3516 78.6942 20.4115 77.6337 21.7135 77.6337C23.0155 77.6337 24.0754 78.6942 24.0754 79.9969Z" fill="white"/>
<path d="M22.5358 79.133C22.5358 79.5901 22.1657 79.9558 21.7134 79.9558C21.2566 79.9558 20.8911 79.5855 20.8911 79.133C20.8911 78.6804 21.2612 78.3102 21.7134 78.3102C22.1657 78.3102 22.5358 78.6804 22.5358 79.133Z" fill="#25A0DE"/>
<path d="M23.3446 82.3921H20.0781V81.3819C20.0781 80.6277 20.6903 80.0151 21.4441 80.0151H21.974C22.7278 80.0151 23.34 80.6277 23.34 81.3819V82.3921H23.3446Z" fill="#25A0DE"/>
<path d="M49.3526 78.5342H25.231V78.8999H49.3526V78.5342Z" fill="white"/>
<path d="M49.3526 79.6359H25.231V80.0015H49.3526V79.6359Z" fill="white"/>
<path d="M49.3526 80.7329H25.231V81.0986H49.3526V80.7329Z" fill="white"/>
<path d="M49.3526 81.83H25.231V82.1956H49.3526V81.83Z" fill="white"/>
<path d="M53.9942 86.8901H17.7524V94.5375H53.9942V86.8901Z" fill="#25A0DE"/>
<path d="M24.0754 90.3001C24.0754 91.6074 23.0155 92.6634 21.7135 92.6634C20.4069 92.6634 19.3516 91.6029 19.3516 90.3001C19.3516 88.9928 20.4115 87.9369 21.7135 87.9369C23.0155 87.9369 24.0754 88.9974 24.0754 90.3001Z" fill="white"/>
<path d="M22.5358 89.4407C22.5358 89.8979 22.1657 90.2635 21.7134 90.2635C21.2566 90.2635 20.8911 89.8933 20.8911 89.4407C20.8911 88.9836 21.2612 88.618 21.7134 88.618C22.1657 88.6134 22.5358 88.9836 22.5358 89.4407Z" fill="#25A0DE"/>
<path d="M23.3446 92.6999H20.0781V91.6897C20.0781 90.9355 20.6903 90.323 21.4441 90.323H21.974C22.7278 90.323 23.34 90.9355 23.34 91.6897V92.6999H23.3446Z" fill="#25A0DE"/>
<path d="M49.3526 88.8419H25.231V89.2076H49.3526V88.8419Z" fill="white"/>
<path d="M49.3526 89.9391H25.231V90.3048H49.3526V89.9391Z" fill="white"/>
<path d="M49.3526 91.0361H25.231V91.4018H49.3526V91.0361Z" fill="white"/>
<path d="M49.3526 92.1332H25.231V92.4989H49.3526V92.1332Z" fill="white"/>
<g opacity="0.51">
<path opacity="0.51" d="M220.758 66.2427H165.959V95.982H220.758V66.2427Z" fill="#25A0DE"/>
<path opacity="0.51" d="M214.084 69.2687H168.444V71.4079H214.084V69.2687Z" fill="#E4EAFE"/>
<path opacity="0.51" d="M200.351 72.7427H168.444V74.8819H200.351V72.7427Z" fill="#E4EAFE"/>
<path opacity="0.51" d="M207.491 76.2167H168.444V78.3559H207.491V76.2167Z" fill="#E4EAFE"/>
<path opacity="0.51" d="M214.084 79.6907H168.444V81.8299H214.084V79.6907Z" fill="#E4EAFE"/>
<path opacity="0.51" d="M210.561 83.1693H168.444V85.3086H210.561V83.1693Z" fill="#E4EAFE"/>
<path opacity="0.51" d="M205.874 86.6433H168.444V88.7826H205.874V86.6433Z" fill="#E4EAFE"/>
<path opacity="0.51" d="M211.461 90.1173H168.444V92.2566H211.461V90.1173Z" fill="#E4EAFE"/>
</g>
<path d="M43.6103 118.933H8.34619V139.476H43.6103V118.933Z" fill="#FCA232"/>
<path d="M8.34619 139.476L25.9805 127.943L43.6149 139.476H8.34619Z" fill="#FFB564"/>
<path d="M8.34619 118.933L25.9805 133.099L43.6149 118.933H8.34619Z" fill="#F98816"/>
</svg>
