<svg width="51" height="69" viewBox="0 0 51 69" fill="none" xmlns="http://www.w3.org/2000/svg">
<path d="M50.9996 68.0372C33.9733 68.0372 17.0078 68.0372 0 68.0372C0 45.3783 0 22.751 0 0.0444294C0.228638 0.0298917 0.458598 0.00213789 0.688558 0.00213789C11.765 -0.00050533 22.8414 -0.00447016 33.9178 0.0166756C34.2627 0.0179972 34.6975 0.193771 34.9367 0.438269C40.1941 5.83043 45.4329 11.2398 50.652 16.6676C50.8846 16.9095 50.9877 17.3694 50.9877 17.7276C51.0035 29.7291 50.9996 41.7293 50.9996 53.7308C50.9996 58.223 50.9996 62.7151 50.9996 67.2073C50.9996 67.4703 50.9996 67.7306 50.9996 68.0372ZM2.22955 65.8235C17.773 65.8235 33.2398 65.8235 48.7132 65.8235C48.7132 49.5281 48.7132 33.2869 48.7132 16.9875C43.8113 16.9875 38.9518 16.9875 34.0076 16.9875C34.0076 12.0539 34.0076 7.17583 34.0076 2.25548C23.3674 2.25548 12.8143 2.25548 2.22955 2.25548C2.22955 23.462 2.22955 44.617 2.22955 65.8235Z" fill="#54BAED"/>
<path d="M41.9428 31.7485C31.3065 31.7485 20.7707 31.7485 10.1846 31.7485C10.1846 31.0071 10.1846 30.2934 10.1846 29.5057C10.4145 29.4952 10.6485 29.474 10.8811 29.474C20.9834 29.4727 31.0871 29.478 41.1895 29.4595C41.8001 29.4582 42.0142 29.6247 41.9521 30.2326C41.9032 30.7071 41.9428 31.1921 41.9428 31.7485Z" fill="#54BAED"/>
<path d="M41.9371 36.353C41.9371 37.0138 41.949 37.668 41.9239 38.3209C41.9199 38.4187 41.7561 38.5575 41.6398 38.5918C41.4772 38.6394 41.2908 38.6103 41.1151 38.6103C31.0563 38.6103 20.9975 38.6103 10.9388 38.6103C10.7009 38.6103 10.463 38.6103 10.1802 38.6103C10.1802 37.8293 10.1802 37.1156 10.1802 36.353C20.7425 36.353 31.2942 36.353 41.9371 36.353Z" fill="#54BAED"/>
<path d="M41.9402 49.9707C41.9402 50.6315 41.96 51.2447 41.9243 51.8553C41.9164 51.9835 41.7274 52.1408 41.5847 52.2095C41.4591 52.269 41.282 52.224 41.1287 52.224C31.07 52.224 21.0112 52.224 10.9511 52.224C10.7132 52.224 10.474 52.224 10.1846 52.224C10.1846 51.4496 10.1846 50.7372 10.1846 49.9707C20.735 49.9707 31.288 49.9707 41.9402 49.9707Z" fill="#54BAED"/>
<path d="M41.9029 56.7998C41.9029 57.532 41.9029 58.2271 41.9029 58.9778C31.3313 58.9778 20.7809 58.9778 10.1816 58.9778C10.1816 58.2628 10.1816 57.5518 10.1816 56.7998C20.7585 56.7998 31.3115 56.7998 41.9029 56.7998Z" fill="#54BAED"/>
<path d="M10.1597 45.3599C10.1597 44.6093 10.1597 43.9313 10.1597 43.2004C20.7378 43.2004 31.2909 43.2004 41.8955 43.2004C41.8955 43.9128 41.8955 44.6238 41.8955 45.3599C31.3081 45.3599 20.7709 45.3599 10.1597 45.3599Z" fill="#54BAED"/>
<path d="M16.5603 11.9389C16.4889 11.8147 16.4387 11.7433 16.403 11.6653C15.7052 10.1257 14.7629 9.51772 13.2259 9.61684C11.6148 9.71992 10.4716 10.6094 10.0263 12.1252C9.63771 13.4469 9.63903 14.7751 10.0038 16.102C10.4492 17.7236 11.6294 18.6699 13.2457 18.7174C14.8647 18.765 15.9828 17.9549 16.5537 16.3227C16.596 16.2011 16.6422 16.0808 16.711 15.8945C17.1722 16.0081 17.6097 16.1152 18.0405 16.2209C17.8343 18.0936 16.2061 19.6624 14.2858 19.8897C10.9831 20.2809 8.79188 18.5919 8.33989 15.2707C8.16544 13.9927 8.22491 12.7226 8.70994 11.4988C9.8082 8.72079 13.4598 7.48244 16.0211 9.03004C16.9885 9.61419 17.5819 10.4732 17.9176 11.6191C17.4511 11.7288 17.0295 11.8279 16.5603 11.9389Z" fill="#54BAED"/>
<path d="M23.9596 18.6156C25.079 15.6935 26.1416 12.9208 27.2042 10.1494C27.6469 8.99563 27.6469 8.99563 28.991 9.12647C28.9461 9.27581 28.9157 9.42383 28.8575 9.55995C27.5399 12.634 26.209 15.7028 24.9125 18.7848C24.7196 19.2421 24.4235 19.2804 24.0337 19.2473C23.6464 19.2156 23.2301 19.3888 22.9962 18.8244C21.6931 15.6975 20.3517 12.5851 19.0248 9.46744C18.9838 9.36964 18.956 9.26656 18.9243 9.17272C18.993 9.13307 19.0274 9.09607 19.0631 9.09475C20.4204 9.03131 20.4217 9.03131 20.8948 10.3133C21.8371 12.8732 22.7768 15.4345 23.7191 17.9958C23.7759 18.1583 23.842 18.3183 23.9596 18.6156Z" fill="#54BAED"/>
</svg>
