<svg width="78" height="78" viewBox="0 0 78 78" fill="none" xmlns="http://www.w3.org/2000/svg">
<path d="M39 78C60.5391 78 78 60.5391 78 39C78 17.4609 60.5391 0 39 0C17.4609 0 0 17.4609 0 39C0 60.5391 17.4609 78 39 78Z" fill="#54BAED"/>
<path d="M48.893 15.6443C48.4857 19.3111 46.9788 22.4119 45.3035 25.3433C41.3641 31.6464 41.8893 38.4747 38.7378 44.5151C35.8489 49.7676 28.758 51.0807 22.7176 52.6565C20.1943 53.4977 18.6159 55.6076 16.4629 57.2587L37.1597 77.9555C37.7698 77.9839 38.3833 77.9999 39.0007 77.9999C58.7129 77.9999 75.0065 63.3742 77.6291 44.3832L48.893 15.6443Z" fill="#3A8DB7"/>
<path d="M33.8264 30.6717C39.7736 28.032 42.1028 23.3901 45.2446 16.4037C45.97 14.7906 48.2105 14.543 49.1987 16.0098C49.7476 16.8244 50.1405 17.9902 50.1405 19.6589C50.1405 25.1969 46.6794 31.6003 46.6794 31.6003H60.4533C63.4515 31.6003 65.6279 34.4524 64.8363 37.3442L60.1707 54.3886C59.6303 56.3636 57.8355 57.7329 55.7878 57.7329H35.7384C34.5001 57.7329 33.2673 57.5677 32.0726 57.2421L26.2578 55.6563V37.4243L28.445 34.7515C29.8905 32.9851 31.7401 31.5974 33.8264 30.6717Z" fill="#ECF0F1"/>
<path d="M18.9053 58.2949H24.5053C26.3831 58.2949 27.9053 56.7727 27.9053 54.8949V34.4954C27.9053 32.6176 26.3831 31.0955 24.5053 31.0955H18.9053C17.0276 31.0955 15.5054 32.6176 15.5054 34.4954V54.8949C15.5054 56.7724 17.0276 58.2949 18.9053 58.2949Z" fill="#29617D"/>
</svg>
