<svg width="78" height="80" viewBox="0 0 78 80" fill="none" xmlns="http://www.w3.org/2000/svg">
<path d="M39 79C60.5391 79 78 61.3152 78 39.5C78 17.6848 60.5391 0 39 0C17.4609 0 0 17.6848 0 39.5C0 61.3152 17.4609 79 39 79Z" fill="#54BAED"/>
<path d="M74.9801 54.1297L41.6266 16.3586L19.8286 59.5826L29.6771 77.5371C56.7801 83.4953 71.172 64.4148 74.9801 54.1297Z" fill="#3A8DB7" stroke="#3A8DB7"/>
<path d="M33.1207 19.6257C33.1207 17.0122 35.2343 14.8956 37.8411 14.8956C40.4491 14.8956 42.5615 17.0122 42.5615 19.6257C42.5615 22.238 40.4491 24.3533 37.8411 24.3533C35.2343 24.3533 33.1207 22.238 33.1207 19.6257ZM64.0812 42.2612V47.4277V49.7004V54.2474V56.9155V59.5825H19.96V54.2476H32.2649L33.0357 43.3365C33.0142 43.3146 32.9843 43.3074 32.9639 43.2831L32.5139 42.7886C30.3727 40.4369 27.1352 36.8839 28.1334 33.2642C28.6923 31.2399 30.241 28.6651 31.8149 27.1426C32.7125 26.2722 33.8759 25.5715 35.0656 25.2091C35.822 24.9775 36.6108 24.866 37.4006 24.8369L35.8746 37.6512L37.8842 39.7168L39.6436 37.6512L38.4251 24.8369C39.2127 24.8902 40.0003 25.0333 40.7495 25.2878C41.8124 25.6467 42.8871 26.3643 43.6866 27.1425C45.2618 28.665 46.8105 31.2398 47.3682 33.2642C48.3688 36.8839 45.1301 40.4368 42.9877 42.7885L42.7567 43.0432L43.4808 54.2476H48.5484V47.4277H58.9707V42.2612H64.0812ZM41.8722 30.104C42.035 32.075 42.3078 35.6038 42.4323 38.3022C43.5286 36.8888 44.4598 35.3056 44.1438 34.1577C43.805 32.9309 42.85 31.2556 41.8722 30.104ZM33.366 38.6718L33.3971 38.2233C33.4019 38.1434 33.4235 38.0694 33.4366 37.9918C33.5779 34.7091 33.737 31.504 33.8184 29.8918C32.7772 31.0397 31.7191 32.852 31.3588 34.1575C31.0142 35.4074 32.15 37.1712 33.366 38.6718ZM36.6131 54.2476H39.1337L38.3737 42.4988C38.2157 42.4794 38.0613 42.4503 37.8985 42.4503C37.7597 42.4503 37.6017 42.4916 37.439 42.5353L36.6131 54.2476Z" fill="#ECF0F1"/>
</svg>
