<svg width="88" height="54" viewBox="0 0 88 54" fill="none" xmlns="http://www.w3.org/2000/svg">
<path d="M39.94 26.5008C39.8199 26.2016 29.8452 6.00479 29.6839 5.72865C29.1585 4.44381 28.2391 3.31239 26.9707 2.55683C23.871 0.700531 19.8893 1.76292 18.073 4.93089C16.8271 7.10169 16.9247 9.70204 18.1106 11.7156C18.2307 12.0147 27.7775 31.3448 27.9389 31.6248C28.059 31.9239 28.2016 32.2116 28.3667 32.4915C28.8921 33.7764 29.8115 34.9078 31.0799 35.6633C34.1796 37.5196 38.1612 36.4573 39.9775 33.2893C41.2234 31.1147 41.1221 28.5181 39.94 26.5008Z" fill="#54BAED"/>
<path d="M69.3729 24.8468C69.2281 24.5594 57.5852 5.31769 57.4011 5.05681C56.7692 3.8231 55.7577 2.77699 54.4302 2.13612C51.1853 0.560136 47.3083 1.96973 45.7663 5.28608C44.7083 7.55866 45.0251 10.1407 46.3765 12.0422C46.5214 12.3296 57.6649 30.7455 57.8493 31.0102C57.9942 31.2976 58.1605 31.5717 58.3487 31.836C58.9806 33.0697 59.9921 34.1158 61.3196 34.7567C64.5645 36.3327 68.4415 34.9231 69.9836 31.6067C71.0412 29.3303 70.721 26.7524 69.3729 24.8468Z" fill="#54BAED"/>
<path d="M28.4229 12.8314C29.5149 11.6424 30.1829 10.0431 30.1829 8.2865C30.1829 4.6161 27.2708 1.63989 23.6795 1.63989C21.4692 1.63989 19.5215 2.76747 18.3469 4.4857C18.133 4.71965 1.94014 25.1159 1.76001 25.3767C0.667979 26.5657 0 28.165 0 29.9216C0 33.592 2.91209 36.5682 6.50342 36.5682C8.71375 36.5682 10.6614 35.4406 11.836 33.7224C12.0499 33.4923 28.2428 13.096 28.4229 12.8314Z" fill="#6ACDFF"/>
<path d="M56.2862 12.8314C57.3782 11.6424 58.0462 10.0431 58.0462 8.2865C58.0462 4.6161 55.1341 1.63989 51.5428 1.63989C49.3324 1.63989 47.3848 2.76747 46.2102 4.4857C45.9963 4.71965 29.8034 25.1159 29.6233 25.3767C28.5313 26.5657 27.8633 28.165 27.8633 29.9216C27.8633 33.592 30.7754 36.5682 34.3667 36.5682C36.577 36.5682 38.5247 35.4406 39.6993 33.7224C39.9132 33.4923 56.106 13.096 56.2862 12.8314Z" fill="#6ACDFF"/>
<path d="M86.2403 12.8431C87.3323 11.6541 88.0003 10.0548 88.0003 8.29822C88.0003 4.62782 85.0882 1.65161 81.4969 1.65161C79.2865 1.65161 77.3389 2.77919 76.1643 4.49742C75.9504 4.73137 59.7575 25.1276 59.5774 25.3884C58.4854 26.5774 57.8174 28.1767 57.8174 29.9333C57.8174 33.6037 60.7295 36.5799 64.3208 36.5799C66.5311 36.5799 68.4788 35.4523 69.6534 33.7341C69.8673 33.504 86.0602 13.1077 86.2403 12.8431Z" fill="#6ACDFF"/>
<path d="M73.0245 29.3621C74.1165 28.1732 74.7845 26.5738 74.7845 24.8173C74.7845 21.1469 71.8724 18.1707 68.2811 18.1707C66.0707 18.1707 64.1231 19.2982 62.9485 21.0165C62.7346 21.2504 46.5417 41.6467 46.3616 41.9075C45.2695 43.0964 44.6016 44.6958 44.6016 46.4523C44.6016 50.1227 47.5137 53.0989 51.105 53.0989C53.3153 53.0989 55.263 51.9714 56.4376 50.2531C56.6515 50.023 72.8443 29.6268 73.0245 29.3621Z" fill="#6ACDFF"/>
</svg>
