<svg width="71" height="71" viewBox="0 0 71 71" fill="none" xmlns="http://www.w3.org/2000/svg">
<path d="M35.4983 70.9991C15.8946 71.1822 0.106995 54.8468 0.000549552 35.7115C-0.106783 16.5468 15.5212 0.00533289 35.4389 1.22204e-06C56.2091 -0.00533044 71.4849 17.4363 70.9882 36.4517C70.503 54.9881 55.0267 71.1902 35.4983 70.9991ZM36.263 1.5915C18.1513 0.785533 2.39469 15.6884 1.5449 33.7645C0.638335 53.043 15.7527 68.926 34.3133 69.5214C53.4176 70.1336 68.4645 55.2387 69.4172 37.5491C70.565 16.2243 53.1124 1.40312 36.263 1.5915Z" fill="#54BAED"/>
<path d="M36.2632 1.59153C53.1126 1.40403 70.5652 16.2252 69.4174 37.5501C68.4647 55.2387 53.4178 70.1345 34.3135 69.5223C15.7529 68.926 0.638551 53.043 1.54511 33.7646C2.3949 15.6885 18.1515 0.785561 36.2632 1.59153ZM44.3814 54.6887C44.652 54.6887 44.8427 54.6887 45.0325 54.6887C48.7874 54.6798 52.5431 54.702 56.2971 54.646C57.7155 54.6247 57.6099 54.7873 57.6144 53.3247C57.6428 43.9205 57.6454 34.5163 57.6507 25.1122C57.6507 24.3871 57.6223 23.6611 57.5745 22.9377C57.5416 22.4499 57.3154 22.2091 56.9553 22.2348C56.541 22.2642 56.3095 22.513 56.2856 22.9253C56.2474 23.5749 56.204 24.2262 56.2031 24.8767C56.1862 34.1618 56.1738 43.4478 56.1747 52.7329C56.1747 53.1745 56.07 53.306 55.6123 53.3033C52.049 53.2829 48.4867 53.2918 44.9234 53.2918C44.754 53.2918 44.5846 53.2918 44.3255 53.2918C44.3255 52.1908 44.3663 51.1689 44.3167 50.1506C44.2191 48.145 43.4119 46.5277 41.6271 45.4818C39.9568 44.5025 38.2927 43.5117 36.6233 42.5289C36.1328 42.2401 35.6352 41.9629 35.1411 41.6803C35.1491 41.6394 35.1579 41.5977 35.1659 41.5568C35.4542 41.5568 35.7425 41.5577 36.0308 41.5568C41.4559 41.5417 46.882 41.5266 52.3072 41.5097C53.259 41.507 53.259 41.5035 53.259 40.5482C53.259 39.9662 53.259 39.9653 52.6868 39.9653C46.6549 39.9653 40.623 39.9653 34.5911 39.9635C34.3924 39.9635 34.1928 39.9422 33.9285 39.9271C33.9693 39.1256 34.0003 38.3738 34.05 37.6238C34.0686 37.3359 34.2372 37.1715 34.5414 37.1591C34.9548 37.1422 35.3673 37.096 35.7797 37.0942C41.2794 37.0782 46.7791 37.0667 52.2779 37.056C53.2581 37.0542 53.2359 37.0551 53.2652 36.0821C53.2785 35.644 53.172 35.5063 52.7072 35.5071C47.0745 35.5258 41.4418 35.5205 35.809 35.5196C35.613 35.5196 35.4169 35.4983 35.2413 35.4885C35.3265 34.6967 35.4134 33.9627 35.4808 33.227C35.5376 32.6085 35.5278 32.6067 36.1479 32.6067C41.6476 32.6058 47.1472 32.6058 52.6469 32.6058C52.8332 32.6058 53.0204 32.6058 53.2128 32.6058C53.2128 32.0611 53.2128 31.583 53.2128 31.0632C47.2945 31.0632 41.416 31.0632 35.5243 31.0632C35.5243 30.084 35.5243 29.1482 35.5243 28.1734C35.754 28.1734 35.9438 28.1734 36.1346 28.1734C41.5305 28.1752 46.9264 28.177 52.3223 28.1788C53.2537 28.1788 53.2537 28.1788 53.2528 27.2439C53.2519 26.637 53.2519 26.6361 52.6629 26.6361C47.1481 26.6353 41.6342 26.6344 36.1195 26.6335C35.9305 26.6335 35.7416 26.6335 35.5305 26.6335C35.4826 25.6471 35.4373 24.7114 35.3894 23.7242C36.893 23.7242 38.3797 23.7242 39.9276 23.7242C39.9276 23.3234 39.9045 22.9706 39.9338 22.6223C39.9639 22.2544 39.8069 22.178 39.4725 22.1815C38.039 22.1975 36.6047 22.178 35.1703 22.1993C34.7588 22.2055 34.4563 22.1069 34.1635 21.7932C33.3785 20.9535 32.3691 20.6389 31.2372 20.6629C30.9418 20.6691 30.7901 20.7615 30.7493 21.093C30.7209 21.3214 30.5861 21.5711 30.4247 21.7408C30.2535 21.9212 29.9944 22.018 29.7744 22.1513C29.7044 21.9061 29.5775 21.6617 29.574 21.4164C29.5456 19.3291 29.5394 17.2409 29.5296 15.1526C29.5296 15.0673 29.5553 14.9829 29.5775 14.8416C29.8942 14.8416 30.2011 14.8425 30.5071 14.8416C35.9917 14.8247 41.4763 14.8096 46.9609 14.7874C47.3592 14.7856 47.7575 14.743 48.154 14.7083C48.5505 14.6737 48.7927 14.4542 48.7865 14.0499C48.7803 13.6411 48.5222 13.4438 48.1283 13.4172C47.8187 13.3958 47.5091 13.3665 47.1987 13.3647C43.4882 13.3452 39.7777 13.3168 36.0672 13.3194C33.6721 13.3212 31.278 13.363 28.8839 13.4038C28.2514 13.4145 28.2203 13.4731 28.1893 14.1005C28.1769 14.3369 28.1733 14.5741 28.1724 14.8114C28.1583 17.0774 28.1449 19.3433 28.1325 21.6084C28.1316 21.7923 28.1325 21.9763 28.1325 22.2348C27.3874 22.2348 26.7212 22.194 26.0622 22.242C23.8055 22.4081 22.31 23.9045 22.2461 26.1767C22.1778 28.6026 22.2248 31.033 22.2159 33.4607C22.2115 34.5554 22.4687 35.6067 23.0418 36.5104C23.6272 37.4328 23.731 38.3969 23.6955 39.4259C23.684 39.7663 23.6654 40.1101 23.7008 40.4469C23.7461 40.8726 23.5829 41.1009 23.2076 41.3142C20.8933 42.6276 18.5906 43.9614 16.2967 45.3103C14.3345 46.4646 13.357 48.1947 13.3499 50.4829C13.3428 52.7924 13.31 55.1028 13.2905 57.4123C13.2896 57.51 13.3171 57.6078 13.3313 57.6984C23.6849 57.6984 34.0092 57.6984 44.3797 57.6984C44.3814 56.6907 44.3814 55.7186 44.3814 54.6887ZM42.1727 17.0631C42.1727 19.5326 42.1727 21.9496 42.1727 24.3631C42.2392 24.3844 42.2809 24.4084 42.3226 24.4084C44.6103 24.4128 46.8989 24.4111 49.1865 24.4217C49.4926 24.4235 49.5094 24.26 49.5085 24.029C49.505 21.8403 49.5014 19.6517 49.5121 17.463C49.5139 17.152 49.4092 17.0542 49.1032 17.0578C47.9225 17.0711 46.741 17.0631 45.5603 17.0631C44.455 17.0631 43.3489 17.0631 42.1727 17.0631ZM54.1114 20.5963C54.1114 20.6185 54.1114 20.6407 54.1114 20.6638C54.9976 20.6638 55.8837 20.6416 56.7681 20.6744C57.1646 20.6896 57.397 20.5714 57.5576 20.2079C57.7128 19.8552 57.5807 19.6188 57.3456 19.3806C55.9467 17.9589 54.5629 16.522 53.1499 15.1153C52.5653 14.5333 51.9444 13.9814 51.2924 13.4767C50.8152 13.107 50.4426 13.283 50.4346 13.8801C50.4062 15.9488 50.424 18.0175 50.4195 20.0862C50.4187 20.4327 50.5739 20.5998 50.9243 20.5989C51.987 20.5936 53.0487 20.5963 54.1114 20.5963ZM39.9249 17.7794C37.4598 17.7794 35.047 17.7794 32.5811 17.7794C32.5811 18.1748 32.5953 18.5418 32.5766 18.9079C32.5615 19.1976 32.668 19.2962 32.9572 19.2918C33.7981 19.2776 34.6399 19.2864 35.4817 19.2873C36.8247 19.2873 38.1686 19.2891 39.5115 19.2856C39.689 19.2847 39.9249 19.3522 39.9249 19.0394C39.9249 18.628 39.9249 18.2174 39.9249 17.7794ZM53.2528 45.9137C53.2528 45.4649 53.2661 45.0526 53.2412 44.643C53.2359 44.5594 53.0887 44.4172 53.0062 44.4164C51.1877 44.4021 49.3702 44.4012 47.5517 44.4155C47.4604 44.4164 47.2971 44.5701 47.2909 44.6607C47.2625 45.0677 47.2785 45.4782 47.2785 45.9137C49.2832 45.9137 51.2285 45.9137 53.2528 45.9137Z" fill="white"/>
<path d="M44.3812 54.6885C44.3812 55.7193 44.3812 56.6914 44.3812 57.7C34.0107 57.7 23.6864 57.7 13.3328 57.7C13.3195 57.6093 13.292 57.5116 13.292 57.4138C13.3106 55.1043 13.3434 52.794 13.3514 50.4845C13.3585 48.1963 14.336 46.4662 16.2982 45.3119C18.5921 43.9629 20.8949 42.6291 23.2092 41.3158C23.5853 41.1025 23.7476 40.8741 23.7024 40.4485C23.6669 40.1117 23.6855 39.7678 23.697 39.4275C23.7316 38.3985 23.6278 37.4343 23.0433 36.5119C22.4703 35.6082 22.213 34.557 22.2174 33.4622C22.2263 31.0345 22.1793 28.6042 22.2476 26.1783C22.3115 23.9052 23.807 22.4088 26.0637 22.2435C26.7236 22.1946 27.3889 22.2364 28.134 22.2364C28.134 21.9787 28.1331 21.7948 28.134 21.6099C28.1473 19.344 28.1598 17.078 28.174 14.813C28.1757 14.5757 28.1793 14.3393 28.1908 14.1021C28.2227 13.4747 28.2529 13.4161 28.8854 13.4054C31.2795 13.3645 33.6745 13.3228 36.0687 13.321C39.7792 13.3183 43.4897 13.3467 47.2002 13.3663C47.5098 13.3681 47.8202 13.3974 48.1298 13.4187C48.5245 13.4454 48.7818 13.6435 48.788 14.0514C48.7942 14.4557 48.552 14.6752 48.1555 14.7099C47.7581 14.7445 47.3599 14.7872 46.9625 14.789C41.4779 14.8112 35.9933 14.8263 30.5087 14.8432C30.2017 14.8441 29.8957 14.8432 29.579 14.8432C29.556 14.9836 29.5302 15.0689 29.5311 15.1542C29.5409 17.2424 29.5471 19.3298 29.5755 21.418C29.579 21.6641 29.7059 21.9085 29.776 22.1529C29.9968 22.0196 30.255 21.9218 30.4262 21.7423C30.5876 21.5726 30.7224 21.3238 30.7508 21.0945C30.7916 20.7631 30.9433 20.6707 31.2387 20.6645C32.3706 20.6405 33.3809 20.9541 34.1651 21.7948C34.4587 22.1084 34.7603 22.2071 35.1719 22.2009C36.6053 22.1795 38.0397 22.1991 39.474 22.1831C39.8084 22.1795 39.9654 22.256 39.9353 22.6238C39.906 22.9722 39.9291 23.325 39.9291 23.7257C38.3803 23.7257 36.8936 23.7257 35.391 23.7257C35.4389 24.713 35.4841 25.6487 35.532 26.635C35.7431 26.635 35.932 26.635 36.121 26.635C41.6357 26.6359 47.1496 26.6368 52.6644 26.6377C53.2543 26.6377 53.2543 26.6386 53.2543 27.2455C53.2552 28.1803 53.2552 28.1803 52.3238 28.1803C46.9279 28.1785 41.532 28.1768 36.1361 28.175C35.9462 28.175 35.7555 28.175 35.5258 28.175C35.5258 29.1498 35.5258 30.0855 35.5258 31.0648C41.4175 31.0648 47.2951 31.0648 53.2144 31.0648C53.2144 31.5846 53.2144 32.0627 53.2144 32.6074C53.0219 32.6074 52.8347 32.6074 52.6484 32.6074C47.1487 32.6074 41.6491 32.6083 36.1494 32.6083C35.5284 32.6083 35.5391 32.6101 35.4823 33.2285C35.4149 33.9643 35.3271 34.6983 35.2428 35.49C35.4185 35.4998 35.6145 35.5211 35.8105 35.5211C41.4433 35.522 47.076 35.5265 52.7087 35.5087C53.1736 35.5069 53.28 35.6455 53.2667 36.0836C53.2374 37.0567 53.2587 37.0558 52.2794 37.0575C46.7797 37.0691 41.28 37.0798 35.7813 37.0958C35.3679 37.0966 34.9554 37.1437 34.5429 37.1606C34.2387 37.1731 34.0701 37.3375 34.0515 37.6254C34.0018 38.3754 33.9708 39.1262 33.93 39.9286C34.1943 39.9438 34.3939 39.9651 34.5926 39.9651C40.6245 39.9669 46.6564 39.9669 52.6883 39.9669C53.2605 39.9669 53.2605 39.9677 53.2605 40.5498C53.2605 41.505 53.2605 41.5086 52.3087 41.5113C46.8835 41.5281 41.4575 41.5424 36.0323 41.5584C35.744 41.5592 35.4557 41.5584 35.1674 41.5584C35.1594 41.5992 35.1506 41.641 35.1426 41.6819C35.6367 41.9645 36.1343 42.2417 36.6248 42.5305C38.2943 43.5124 39.9583 44.5041 41.6287 45.4834C43.4125 46.5293 44.2197 48.1465 44.3182 50.1521C44.3679 51.1705 44.327 52.1924 44.327 53.2934C44.5861 53.2934 44.7555 53.2934 44.9249 53.2934C48.4882 53.2934 52.0506 53.2845 55.6138 53.3049C56.0715 53.3076 56.1762 53.1761 56.1762 52.7344C56.1753 43.4493 56.1877 34.1633 56.2046 24.8782C56.2055 24.2278 56.2489 23.5764 56.2871 22.9269C56.311 22.5145 56.5425 22.2657 56.9568 22.2364C57.3169 22.2106 57.5431 22.4515 57.576 22.9393C57.6239 23.6626 57.6531 24.3886 57.6522 25.1137C57.6469 34.5179 57.6443 43.9221 57.6159 53.3262C57.6114 54.7889 57.717 54.6263 56.2986 54.6476C52.5446 54.7036 48.7889 54.6814 45.034 54.6903C44.8415 54.6885 44.6517 54.6885 44.3812 54.6885ZM19.2733 56.1822C19.2733 54.6974 19.2733 53.2525 19.2733 51.7632C19.6166 51.7632 19.9111 51.7827 20.2012 51.7578C20.5418 51.7294 20.6651 51.836 20.6589 52.1986C20.6367 53.368 20.65 54.5374 20.6518 55.7068C20.6518 55.8632 20.666 56.0196 20.6722 56.1662C23.1825 56.1662 25.6414 56.1662 28.126 56.1662C28.126 55.9787 28.1269 55.8312 28.126 55.6846C28.1101 53.2863 28.0675 50.8879 28.0941 48.4904C28.1012 47.8168 27.9345 47.3485 27.3632 46.9798C27.0926 46.8047 26.9117 46.7576 26.6154 46.9051C25.7967 47.3121 24.977 47.7351 24.1193 48.0461C23.0388 48.4371 22.0241 47.536 22.2316 46.4022C22.3585 45.7055 22.566 45.0231 22.7346 44.3344C22.8171 43.9985 22.8934 43.6599 23.0034 43.1916C22.1252 43.6653 21.3579 44.0438 20.6252 44.481C19.1678 45.351 17.6971 46.2049 16.2946 47.1593C15.3366 47.8106 14.9064 48.8441 14.8798 49.9966C14.8346 51.9498 14.8319 53.9038 14.8142 55.8579C14.8133 55.9583 14.8328 56.0587 14.8452 56.1822C16.3062 56.1822 17.7467 56.1822 19.2733 56.1822ZM38.5107 56.176C40.0231 56.176 41.4184 56.176 42.8226 56.176C42.8342 56.0729 42.8501 56.001 42.8501 55.929C42.8279 53.7234 42.8049 51.5179 42.7783 49.3124C42.7774 49.2102 42.7756 49.0947 42.7295 49.0094C42.286 48.1705 41.846 47.3308 40.9829 46.8234C39.0837 45.7082 37.1899 44.585 35.2925 43.468C35.163 43.3916 35.0211 43.3382 34.8108 43.2387C34.8853 43.492 34.9306 43.6448 34.9767 43.7985C35.2153 44.6072 35.4681 45.4114 35.6863 46.2253C35.8229 46.7345 35.76 47.2055 35.3652 47.6231C34.8685 48.1492 34.3052 48.3207 33.6435 48.0426C32.7999 47.688 31.9732 47.2935 31.1349 46.9247C30.9903 46.8616 30.8191 46.7869 30.6754 46.8101C30.2683 46.874 29.5231 47.8311 29.5223 48.2478C29.5214 50.7493 29.5214 53.2516 29.5231 55.753C29.5231 55.8952 29.5382 56.0374 29.5462 56.1751C32.0557 56.1751 34.5154 56.1751 37.0284 56.1751C37.0284 54.7 37.0284 53.2569 37.0284 51.7552C37.5332 51.7863 37.9802 51.8147 38.5107 51.8476C38.5107 53.3058 38.5107 54.7205 38.5107 56.176ZM26.1692 29.2156C25.3673 29.8802 24.5894 30.512 23.831 31.1669C23.7325 31.2514 23.689 31.4495 23.6908 31.5944C23.7006 32.3346 23.6953 33.0783 23.7707 33.8132C23.8283 34.3793 23.9117 34.9702 24.1317 35.4874C24.8023 37.0584 26.7609 38.8632 29.6606 38.4669C31.6751 38.1914 33.9726 36.0561 33.8865 33.8763C33.8555 33.0926 33.9052 32.3061 33.8785 31.5224C33.8723 31.3349 33.7517 31.0532 33.6053 30.9866C33.2133 30.8088 32.7839 30.6471 32.3599 30.6169C31.0338 30.5209 29.7032 30.4845 28.3744 30.4321C27.8094 30.4099 27.3002 30.2712 26.8851 29.858C26.6456 29.619 26.383 29.4057 26.1692 29.2156ZM23.7698 29.1898C23.8159 29.2147 23.8629 29.2404 23.909 29.2653C24.3614 28.765 24.8183 28.2674 25.2662 27.7627C25.7426 27.2268 25.9945 27.2206 26.4903 27.7458C26.5515 27.8107 26.6092 27.8782 26.6624 27.9484C27.1796 28.6353 27.8821 28.9419 28.7239 29.0014C30.4244 29.1205 32.1488 28.8557 33.8324 29.3586C33.8714 29.2467 33.9167 29.1782 33.9158 29.1107C33.8865 27.4401 33.9202 25.7642 33.7916 24.1016C33.7224 23.2112 33.0979 22.5883 32.2171 22.2933C31.9341 22.1982 31.6742 22.2009 31.5438 22.5128C31.2165 23.2947 30.5619 23.5347 29.8008 23.588C28.4152 23.684 27.0279 23.7568 25.6423 23.8546C24.8857 23.9079 23.9898 24.6046 23.8523 25.3537C23.6207 26.6226 23.6784 27.9093 23.7698 29.1898ZM25.0835 39.0214C25.0835 39.5528 25.1039 40.0211 25.0791 40.4867C25.0374 41.242 25.2121 41.9396 25.6645 42.5349C26.548 43.6981 27.4652 44.8364 28.3673 45.9863C28.6441 46.3391 28.9279 46.3035 29.2224 46.0112C29.7671 45.47 30.3348 44.9493 30.8546 44.385C32.1736 42.9553 32.8638 41.3042 32.5329 39.32C32.5178 39.2275 32.4885 39.1378 32.4699 39.064C30.0022 40.2974 27.5708 40.2841 25.0835 39.0214ZM23.7006 46.5204C23.7405 46.555 23.7795 46.5888 23.8194 46.6234C24.5575 46.2564 25.2955 45.8886 26.0912 45.4931C25.5625 44.7014 25.0897 43.9923 24.6169 43.284C24.5788 43.2992 24.5415 43.3143 24.5034 43.3285C24.2364 44.3921 23.9685 45.4558 23.7006 46.5204ZM33.2984 43.5355C32.7378 44.266 32.2677 44.8791 31.7594 45.5411C32.5879 45.9392 33.3649 46.3124 34.142 46.6856C34.1766 46.6439 34.2103 46.6012 34.2449 46.5595C33.9389 45.5829 33.6337 44.6072 33.2984 43.5355Z" fill="#54BAED"/>
<path d="M42.1729 17.0628C43.3491 17.0628 44.4552 17.0628 45.5605 17.0628C46.7411 17.0628 47.9227 17.0708 49.1033 17.0575C49.4085 17.0539 49.5131 17.1508 49.5123 17.4627C49.5016 19.6513 49.5052 21.84 49.5087 24.0286C49.5087 24.2597 49.4927 24.4232 49.1867 24.4214C46.899 24.4107 44.6104 24.4125 42.3228 24.4081C42.2811 24.4081 42.2403 24.3841 42.1729 24.3627C42.1729 21.9493 42.1729 19.5322 42.1729 17.0628ZM48.0646 22.8717C48.0956 22.8015 48.1169 22.7757 48.1169 22.749C48.0965 21.433 48.0699 20.1161 48.0548 18.8C48.0513 18.5077 47.8677 18.5183 47.6681 18.5148C46.7083 18.4961 45.7485 18.473 44.7887 18.4553C44.4393 18.449 44.0889 18.4544 43.7225 18.4544C43.7225 19.9517 43.7225 21.4028 43.7225 22.8717C45.1932 22.8717 46.6231 22.8717 48.0646 22.8717Z" fill="#54BAED"/>
<path d="M54.1116 20.5961C53.0498 20.5961 51.9871 20.5935 50.9253 20.597C50.5749 20.5979 50.4197 20.4309 50.4206 20.0843C50.4241 18.0156 50.4064 15.9469 50.4357 13.8782C50.4437 13.2811 50.8162 13.106 51.2934 13.4748C51.9454 13.9795 52.5663 14.5314 53.1509 15.1134C54.5648 16.5201 55.9486 17.957 57.3466 19.3787C57.5808 19.6169 57.7138 19.8541 57.5586 20.206C57.3981 20.5695 57.1656 20.6868 56.7691 20.6726C55.8848 20.6397 54.9977 20.6619 54.1125 20.6619C54.1116 20.6406 54.1116 20.6184 54.1116 20.5961ZM51.7627 19.2072C52.8458 19.2072 53.9031 19.2072 54.9605 19.2072C54.0104 18.0058 52.9841 16.9626 51.8753 16.0056C51.8381 16.0287 51.8008 16.0518 51.7627 16.0749C51.7627 17.119 51.7627 18.1622 51.7627 19.2072Z" fill="#54BAED"/>
<path d="M39.9249 17.7794C39.9249 18.2166 39.9249 18.6271 39.9249 19.0376C39.9249 19.3504 39.6889 19.2838 39.5115 19.2838C38.1685 19.2882 36.8246 19.2865 35.4817 19.2856C34.6398 19.2856 33.7989 19.2758 32.9571 19.29C32.668 19.2953 32.5615 19.1958 32.5766 18.9061C32.5952 18.54 32.581 18.173 32.581 17.7776C35.047 17.7794 37.4598 17.7794 39.9249 17.7794Z" fill="#54BAED"/>
<path d="M53.2527 45.9134C51.2276 45.9134 49.2822 45.9134 47.2784 45.9134C47.2784 45.478 47.2624 45.0674 47.2908 44.6604C47.297 44.5698 47.4602 44.4161 47.5516 44.4152C49.3701 44.401 51.1876 44.4027 53.0061 44.4161C53.0886 44.417 53.2358 44.5591 53.2412 44.6427C53.266 45.0523 53.2527 45.4637 53.2527 45.9134Z" fill="#54BAED"/>
<path d="M19.2733 56.1822C17.7467 56.1822 16.3061 56.1822 14.846 56.1822C14.8336 56.0578 14.8141 55.9574 14.815 55.8579C14.8327 53.9038 14.8354 51.9498 14.8806 49.9966C14.9072 48.8432 15.3374 47.8106 16.2954 47.1593C17.6979 46.2049 19.1686 45.3519 20.626 44.481C21.3578 44.0438 22.1251 43.6653 23.0042 43.1917C22.8942 43.6608 22.8179 43.9985 22.7354 44.3344C22.5669 45.024 22.3593 45.7055 22.2324 46.4022C22.0258 47.5361 23.0397 48.4371 24.1201 48.0461C24.9778 47.736 25.7966 47.313 26.6162 46.9051C26.9125 46.7576 27.0943 46.8047 27.364 46.9798C27.9353 47.3486 28.102 47.8169 28.0949 48.4904C28.0683 50.8879 28.1109 53.2863 28.1269 55.6846C28.1277 55.8312 28.1269 55.9787 28.1269 56.1662C25.6414 56.1662 23.1834 56.1662 20.673 56.1662C20.6659 56.0196 20.6526 55.8632 20.6526 55.7068C20.6508 54.5374 20.6375 53.368 20.6597 52.1986C20.6668 51.836 20.5435 51.7285 20.202 51.7578C19.9119 51.7827 19.6174 51.7632 19.2741 51.7632C19.2733 53.2534 19.2733 54.6974 19.2733 56.1822Z" fill="white"/>
<path d="M38.511 56.1764C38.511 54.7208 38.511 53.3062 38.511 51.8488C37.9814 51.816 37.5334 51.7875 37.0287 51.7564C37.0287 53.2582 37.0287 54.7013 37.0287 56.1764C34.5157 56.1764 32.0568 56.1764 29.5465 56.1764C29.5385 56.0386 29.5234 55.8965 29.5234 55.7543C29.5217 53.2528 29.5217 50.7505 29.5226 48.2491C29.5226 47.8323 30.2686 46.8753 30.6757 46.8113C30.8203 46.7882 30.9915 46.8629 31.1352 46.9259C31.9735 47.2947 32.8002 47.6893 33.6438 48.0438C34.3046 48.3219 34.8688 48.1504 35.3655 47.6244C35.7602 47.2059 35.8232 46.7358 35.6866 46.2266C35.4675 45.4126 35.2147 44.6084 34.977 43.7998C34.9317 43.6461 34.8865 43.4932 34.8111 43.24C35.0213 43.3395 35.1633 43.3937 35.2928 43.4693C37.1902 44.5862 39.0849 45.7094 40.9832 46.8246C41.8463 47.3312 42.2862 48.1718 42.7298 49.0106C42.775 49.0968 42.7768 49.2123 42.7785 49.3136C42.8043 51.5192 42.8282 53.7247 42.8504 55.9302C42.8513 56.0022 42.8353 56.0742 42.8229 56.1773C41.4187 56.1764 40.0234 56.1764 38.511 56.1764ZM31.7756 53.3062C31.4386 53.3044 31.0536 53.73 31.0651 54.0899C31.0749 54.3992 31.4882 54.7999 31.8067 54.8088C32.1056 54.8168 32.5651 54.3521 32.5589 54.0473C32.5518 53.7478 32.087 53.3079 31.7756 53.3062ZM31.7473 51.7715C32.1092 51.7786 32.5305 51.3992 32.527 51.0704C32.5234 50.7701 32.1473 50.4191 31.8147 50.4057C31.4306 50.3906 31.0731 50.699 31.0634 51.0553C31.0518 51.4365 31.3658 51.7644 31.7473 51.7715Z" fill="white"/>
<path d="M26.1693 29.2158C26.3831 29.406 26.6456 29.6201 26.8842 29.8574C27.2994 30.2715 27.8094 30.4101 28.3736 30.4314C29.7024 30.4839 31.033 30.5203 32.3591 30.6163C32.7831 30.6474 33.2124 30.8082 33.6045 30.9859C33.7509 31.0517 33.8715 31.3334 33.8777 31.5218C33.9043 32.3055 33.8555 33.0919 33.8857 33.8757C33.9717 36.0546 31.6752 38.1908 29.6598 38.4663C26.7601 38.8626 24.8015 37.0578 24.1309 35.4867C23.9109 34.9705 23.8275 34.3786 23.7698 33.8126C23.6944 33.0777 23.6998 32.334 23.69 31.5937C23.6882 31.4489 23.7317 31.2516 23.8301 31.1663C24.5895 30.5123 25.3665 29.8796 26.1693 29.2158Z" fill="white"/>
<path d="M23.7699 29.19C23.6777 27.9095 23.62 26.6237 23.8542 25.3547C23.9917 24.6056 24.8876 23.9098 25.6443 23.8556C27.0298 23.757 28.4172 23.685 29.8027 23.5891C30.5638 23.5357 31.2194 23.2958 31.5458 22.5138C31.6762 22.2019 31.9361 22.1993 32.2191 22.2944C33.099 22.5894 33.7244 23.2123 33.7936 24.1027C33.9222 25.7662 33.8885 27.4412 33.9178 29.1118C33.9186 29.1793 33.8734 29.2477 33.8344 29.3597C32.1508 28.8567 30.4263 29.1216 28.7259 29.0025C27.8841 28.9438 27.1806 28.6364 26.6644 27.9495C26.6111 27.8784 26.5526 27.8109 26.4923 27.7469C25.9964 27.2208 25.7445 27.2279 25.2682 27.7638C24.8193 28.2685 24.3634 28.7661 23.911 29.2664C23.8631 29.2397 23.8161 29.2149 23.7699 29.19Z" fill="white"/>
<path d="M25.0832 39.0217C27.5704 40.2844 30.0018 40.2987 32.4696 39.0644C32.4882 39.1372 32.5175 39.2279 32.5326 39.3203C32.8643 41.3046 32.1742 42.9556 30.8543 44.3854C30.3336 44.9496 29.7668 45.4704 29.2221 46.0115C28.9276 46.3048 28.6438 46.3394 28.367 45.9866C27.4649 44.8377 26.5477 43.6994 25.6642 42.5353C25.2118 41.9399 25.037 41.2424 25.0787 40.487C25.1036 40.0214 25.0832 39.5531 25.0832 39.0217Z" fill="white"/>
<path d="M23.7002 46.5205C23.9681 45.4568 24.236 44.3923 24.503 43.3286C24.5411 43.3135 24.5784 43.2984 24.6165 43.2842C25.0893 43.9933 25.5621 44.7015 26.0908 45.4933C25.2951 45.8887 24.5571 46.2566 23.8191 46.6236C23.78 46.5889 23.7401 46.5543 23.7002 46.5205Z" fill="white"/>
<path d="M33.2983 43.5356C33.6336 44.6073 33.9396 45.5839 34.2448 46.5596C34.2102 46.6014 34.1765 46.644 34.1419 46.6858C33.3648 46.3126 32.5869 45.9393 31.7593 45.5412C32.2667 44.8783 32.7377 44.2661 33.2983 43.5356Z" fill="white"/>
<path d="M48.0642 22.8721C46.6227 22.8721 45.1928 22.8721 43.7212 22.8721C43.7212 21.4032 43.7212 19.9521 43.7212 18.4548C44.0875 18.4548 44.4379 18.4494 44.7874 18.4557C45.7472 18.4734 46.707 18.4965 47.6668 18.5152C47.8663 18.5187 48.05 18.5081 48.0535 18.8004C48.0686 20.1165 48.0952 21.4334 48.1156 22.7494C48.1174 22.7761 48.0952 22.8019 48.0642 22.8721Z" fill="white"/>
<path d="M51.7622 19.2073C51.7622 18.1623 51.7622 17.119 51.7622 16.0749C51.7995 16.0518 51.8367 16.0287 51.8749 16.0056C52.9837 16.9635 54.01 18.0059 54.96 19.2073C53.9027 19.2073 52.8453 19.2073 51.7622 19.2073Z" fill="white"/>
<path d="M31.7751 53.3059C32.0865 53.3077 32.5522 53.7476 32.5575 54.047C32.5637 54.3509 32.1042 54.8166 31.8053 54.8086C31.4877 54.7997 31.0743 54.3998 31.0637 54.0897C31.053 53.7298 31.438 53.3041 31.7751 53.3059Z" fill="#54BAED"/>
<path d="M31.7471 51.7713C31.3648 51.7642 31.0516 51.4363 31.0623 51.0542C31.072 50.6987 31.4295 50.3895 31.8136 50.4046C32.1462 50.4179 32.5224 50.768 32.5259 51.0693C32.5303 51.3989 32.109 51.7784 31.7471 51.7713Z" fill="#54BAED"/>
</svg>
