<svg width="189" height="41" viewBox="0 0 189 41" fill="none" xmlns="http://www.w3.org/2000/svg">
<path d="M27.1475 22.0131C27.0659 21.8097 20.286 8.08173 20.1763 7.89404C19.8192 7.02072 19.1943 6.25168 18.3321 5.73812C16.2252 4.47637 13.5189 5.19849 12.2843 7.35179C11.4375 8.82731 11.5038 10.5948 12.3098 11.9634C12.3914 12.1668 18.8805 25.3056 18.9902 25.4959C19.0719 25.6992 19.1688 25.8948 19.281 26.0851C19.6381 26.9584 20.263 27.7274 21.1252 28.241C23.2321 29.5027 25.9385 28.7806 27.173 26.6273C28.0199 25.1492 27.951 23.3843 27.1475 22.0131Z" fill="#54BAED"/>
<path d="M47.1537 20.8886C47.0552 20.6933 39.1414 7.61445 39.0163 7.43713C38.5868 6.59857 37.8992 5.88751 36.9969 5.45191C34.7913 4.38069 32.1561 5.33881 31.1079 7.59297C30.3888 9.13767 30.6042 10.8927 31.5228 12.1851C31.6212 12.3805 39.1956 24.898 39.3209 25.0779C39.4194 25.2733 39.5325 25.4596 39.6604 25.6393C40.0899 26.4778 40.7774 27.1889 41.6797 27.6245C43.8853 28.6957 46.5206 27.7376 47.5687 25.4834C48.2876 23.9361 48.07 22.1839 47.1537 20.8886Z" fill="#54BAED"/>
<path d="M19.3194 12.722C20.0616 11.9138 20.5157 10.8267 20.5157 9.63277C20.5157 7.13795 18.5363 5.11499 16.0952 5.11499C14.5928 5.11499 13.269 5.88142 12.4706 7.04932C12.3252 7.20834 1.31874 21.0719 1.1963 21.2492C0.454033 22.0573 0 23.1444 0 24.3384C0 26.8332 1.97938 28.8561 4.42045 28.8561C5.92284 28.8561 7.24667 28.0897 8.04506 26.9218C8.19045 26.7654 19.1969 12.9018 19.3194 12.722Z" fill="#6ACDFF"/>
<path d="M38.2583 12.722C39.0006 11.9138 39.4546 10.8267 39.4546 9.63277C39.4546 7.13795 37.4752 5.11499 35.0342 5.11499C33.5318 5.11499 32.208 5.88142 31.4096 7.04931C31.2642 7.20834 20.2577 21.0719 20.1353 21.2492C19.393 22.0573 18.939 23.1444 18.939 24.3384C18.939 26.8332 20.9183 28.8561 23.3594 28.8561C24.8618 28.8561 26.1856 28.0897 26.984 26.9218C27.1294 26.7654 38.1359 12.9018 38.2583 12.722Z" fill="#6ACDFF"/>
<path d="M58.6182 12.7298C59.3605 11.9216 59.8145 10.8345 59.8145 9.64058C59.8145 7.14576 57.8351 5.1228 55.394 5.1228C53.8917 5.1228 52.5678 5.88923 51.7694 7.05713C51.624 7.21615 40.6176 21.0797 40.4951 21.257C39.7529 22.0651 39.2988 23.1522 39.2988 24.3462C39.2988 26.841 41.2782 28.864 43.7193 28.864C45.2217 28.864 46.5455 28.0975 47.3439 26.9296C47.4893 26.7732 58.4958 12.9096 58.6182 12.7298Z" fill="#6ACDFF"/>
<path d="M49.6358 23.958C50.378 23.1499 50.8321 22.0628 50.8321 20.8689C50.8321 18.374 48.8527 16.3511 46.4116 16.3511C44.9092 16.3511 43.5854 17.1175 42.787 18.2854C42.6416 18.4444 31.6351 32.308 31.5127 32.4853C30.7704 33.2934 30.3164 34.3805 30.3164 35.5744C30.3164 38.0693 32.2958 40.0922 34.7369 40.0922C36.2392 40.0922 37.5631 39.3258 38.3615 38.1579C38.5069 38.0015 49.5133 24.1379 49.6358 23.958Z" fill="#6ACDFF"/>
<path d="M61.632 24V7.2H67.8C69.144 7.2 70.248 7.432 71.112 7.896C71.992 8.344 72.648 8.96 73.08 9.744C73.512 10.512 73.728 11.368 73.728 12.312C73.728 13.336 73.456 14.272 72.912 15.12C72.384 15.968 71.552 16.584 70.416 16.968L73.896 24H70.368L67.248 17.376H64.704V24H61.632ZM64.704 15.12H67.608C68.632 15.12 69.384 14.872 69.864 14.376C70.344 13.88 70.584 13.224 70.584 12.408C70.584 11.608 70.344 10.968 69.864 10.488C69.4 10.008 68.64 9.768 67.584 9.768H64.704V15.12ZM81.5706 24.288C80.3706 24.288 79.3066 24.032 78.3786 23.52C77.4506 23.008 76.7226 22.288 76.1946 21.36C75.6666 20.432 75.4026 19.36 75.4026 18.144C75.4026 16.912 75.6586 15.816 76.1706 14.856C76.6986 13.896 77.4186 13.152 78.3306 12.624C79.2586 12.08 80.3466 11.808 81.5946 11.808C82.7626 11.808 83.7946 12.064 84.6906 12.576C85.5866 13.088 86.2826 13.792 86.7786 14.688C87.2906 15.568 87.5466 16.552 87.5466 17.64C87.5466 17.816 87.5386 18 87.5226 18.192C87.5226 18.384 87.5146 18.584 87.4986 18.792H78.4506C78.5146 19.72 78.8346 20.448 79.4106 20.976C80.0026 21.504 80.7146 21.768 81.5466 21.768C82.1706 21.768 82.6906 21.632 83.1066 21.36C83.5386 21.072 83.8586 20.704 84.0666 20.256H87.1866C86.9626 21.008 86.5866 21.696 86.0586 22.32C85.5466 22.928 84.9066 23.408 84.1386 23.76C83.3866 24.112 82.5306 24.288 81.5706 24.288ZM81.5946 14.304C80.8426 14.304 80.1786 14.52 79.6026 14.952C79.0266 15.368 78.6586 16.008 78.4986 16.872H84.4266C84.3786 16.088 84.0906 15.464 83.5626 15C83.0346 14.536 82.3786 14.304 81.5946 14.304ZM95.0503 24.288C93.9943 24.288 93.0663 24.12 92.2663 23.784C91.4663 23.432 90.8263 22.952 90.3463 22.344C89.8663 21.736 89.5783 21.032 89.4823 20.232H92.5783C92.6743 20.696 92.9303 21.096 93.3463 21.432C93.7783 21.752 94.3303 21.912 95.0023 21.912C95.6743 21.912 96.1623 21.776 96.4663 21.504C96.7863 21.232 96.9463 20.92 96.9463 20.568C96.9463 20.056 96.7223 19.712 96.2743 19.536C95.8263 19.344 95.2023 19.16 94.4023 18.984C93.8903 18.872 93.3703 18.736 92.8423 18.576C92.3143 18.416 91.8263 18.216 91.3783 17.976C90.9463 17.72 90.5943 17.4 90.3223 17.016C90.0503 16.616 89.9143 16.128 89.9143 15.552C89.9143 14.496 90.3303 13.608 91.1623 12.888C92.0103 12.168 93.1943 11.808 94.7143 11.808C96.1223 11.808 97.2423 12.136 98.0743 12.792C98.9223 13.448 99.4263 14.352 99.5863 15.504H96.6823C96.5063 14.624 95.8423 14.184 94.6903 14.184C94.1143 14.184 93.6663 14.296 93.3463 14.52C93.0423 14.744 92.8903 15.024 92.8903 15.36C92.8903 15.712 93.1223 15.992 93.5863 16.2C94.0503 16.408 94.6663 16.6 95.4343 16.776C96.2663 16.968 97.0263 17.184 97.7143 17.424C98.4183 17.648 98.9783 17.992 99.3943 18.456C99.8103 18.904 100.018 19.552 100.018 20.4C100.034 21.136 99.8423 21.8 99.4423 22.392C99.0423 22.984 98.4663 23.448 97.7143 23.784C96.9623 24.12 96.0743 24.288 95.0503 24.288ZM107.204 24.288C105.716 24.288 104.564 23.824 103.748 22.896C102.948 21.968 102.548 20.608 102.548 18.816V12.096H105.596V18.528C105.596 19.552 105.804 20.336 106.22 20.88C106.636 21.424 107.292 21.696 108.188 21.696C109.036 21.696 109.732 21.392 110.276 20.784C110.836 20.176 111.116 19.328 111.116 18.24V12.096H114.188V24H111.476L111.236 21.984C110.868 22.688 110.332 23.248 109.628 23.664C108.94 24.08 108.132 24.288 107.204 24.288ZM117.341 24V12.096H120.053L120.317 13.704C120.701 13.128 121.205 12.672 121.829 12.336C122.469 11.984 123.205 11.808 124.037 11.808C125.877 11.808 127.181 12.52 127.949 13.944C128.381 13.288 128.957 12.768 129.677 12.384C130.413 12 131.213 11.808 132.077 11.808C133.629 11.808 134.821 12.272 135.653 13.2C136.485 14.128 136.901 15.488 136.901 17.28V24H133.829V17.568C133.829 16.544 133.629 15.76 133.229 15.216C132.845 14.672 132.245 14.4 131.429 14.4C130.597 14.4 129.925 14.704 129.413 15.312C128.917 15.92 128.669 16.768 128.669 17.856V24H125.597V17.568C125.597 16.544 125.397 15.76 124.997 15.216C124.597 14.672 123.981 14.4 123.149 14.4C122.333 14.4 121.669 14.704 121.157 15.312C120.661 15.92 120.413 16.768 120.413 17.856V24H117.341ZM145.602 24.288C144.402 24.288 143.338 24.032 142.41 23.52C141.482 23.008 140.754 22.288 140.226 21.36C139.698 20.432 139.434 19.36 139.434 18.144C139.434 16.912 139.69 15.816 140.202 14.856C140.73 13.896 141.45 13.152 142.362 12.624C143.29 12.08 144.378 11.808 145.626 11.808C146.794 11.808 147.826 12.064 148.722 12.576C149.618 13.088 150.314 13.792 150.81 14.688C151.322 15.568 151.578 16.552 151.578 17.64C151.578 17.816 151.57 18 151.554 18.192C151.554 18.384 151.546 18.584 151.53 18.792H142.482C142.546 19.72 142.866 20.448 143.442 20.976C144.034 21.504 144.746 21.768 145.578 21.768C146.202 21.768 146.722 21.632 147.138 21.36C147.57 21.072 147.89 20.704 148.098 20.256H151.218C150.994 21.008 150.618 21.696 150.09 22.32C149.578 22.928 148.938 23.408 148.17 23.76C147.418 24.112 146.562 24.288 145.602 24.288ZM145.626 14.304C144.874 14.304 144.21 14.52 143.634 14.952C143.058 15.368 142.69 16.008 142.53 16.872H148.458C148.41 16.088 148.122 15.464 147.594 15C147.066 14.536 146.41 14.304 145.626 14.304ZM154.378 24V7.2H156.394V22.392H164.218V24H154.378ZM168.091 9.456C167.691 9.456 167.355 9.328 167.083 9.072C166.827 8.8 166.699 8.464 166.699 8.064C166.699 7.68 166.827 7.36 167.083 7.104C167.355 6.848 167.691 6.72 168.091 6.72C168.475 6.72 168.803 6.848 169.075 7.104C169.347 7.36 169.483 7.68 169.483 8.064C169.483 8.464 169.347 8.8 169.075 9.072C168.803 9.328 168.475 9.456 168.091 9.456ZM167.083 24V12.096H169.099V24H167.083ZM173.257 24V13.8H171.457V12.096H173.257V10.032C173.257 8.88 173.545 8.04 174.121 7.512C174.697 6.984 175.537 6.72 176.641 6.72H177.841V8.448H176.953C176.345 8.448 175.913 8.576 175.657 8.832C175.401 9.072 175.273 9.488 175.273 10.08V12.096H178.201V13.8H175.273V24H173.257ZM185.305 24C184.217 24 183.361 23.736 182.737 23.208C182.113 22.68 181.801 21.728 181.801 20.352V13.8H179.737V12.096H181.801L182.065 9.24H183.817V12.096H187.321V13.8H183.817V20.352C183.817 21.104 183.969 21.616 184.273 21.888C184.577 22.144 185.113 22.272 185.881 22.272H187.129V24H185.305Z" fill="#0A2034"/>
</svg>
