<svg width="454" height="97" viewBox="0 0 454 97" fill="none" xmlns="http://www.w3.org/2000/svg">
<path d="M163.74 55V16.5H177.875C180.955 16.5 183.485 17.0317 185.465 18.095C187.482 19.1217 188.985 20.5333 189.975 22.33C190.965 24.09 191.46 26.0517 191.46 28.215C191.46 30.5617 190.837 32.7067 189.59 34.65C188.38 36.5933 186.473 38.005 183.87 38.885L191.845 55H183.76L176.61 39.82H170.78V55H163.74ZM170.78 34.65H177.435C179.782 34.65 181.505 34.0817 182.605 32.945C183.705 31.8083 184.255 30.305 184.255 28.435C184.255 26.6017 183.705 25.135 182.605 24.035C181.542 22.935 179.8 22.385 177.38 22.385H170.78V34.65ZM209.433 55.66C206.683 55.66 204.244 55.0733 202.118 53.9C199.991 52.7267 198.323 51.0767 197.113 48.95C195.903 46.8233 195.298 44.3667 195.298 41.58C195.298 38.7567 195.884 36.245 197.058 34.045C198.268 31.845 199.918 30.14 202.008 28.93C204.134 27.6833 206.628 27.06 209.488 27.06C212.164 27.06 214.529 27.6467 216.583 28.82C218.636 29.9933 220.231 31.6067 221.368 33.66C222.541 35.6767 223.128 37.9317 223.128 40.425C223.128 40.8283 223.109 41.25 223.073 41.69C223.073 42.13 223.054 42.5883 223.018 43.065H202.283C202.429 45.1917 203.163 46.86 204.483 48.07C205.839 49.28 207.471 49.885 209.378 49.885C210.808 49.885 211.999 49.5733 212.953 48.95C213.943 48.29 214.676 47.4467 215.153 46.42H222.303C221.789 48.1433 220.928 49.72 219.718 51.15C218.544 52.5433 217.078 53.6433 215.318 54.45C213.594 55.2567 211.633 55.66 209.433 55.66ZM209.488 32.78C207.764 32.78 206.243 33.275 204.923 34.265C203.603 35.2183 202.759 36.685 202.393 38.665H215.978C215.868 36.8683 215.208 35.4383 213.998 34.375C212.788 33.3117 211.284 32.78 209.488 32.78ZM240.324 55.66C237.904 55.66 235.777 55.275 233.944 54.505C232.11 53.6983 230.644 52.5983 229.544 51.205C228.444 49.8117 227.784 48.1983 227.564 46.365H234.659C234.879 47.4283 235.465 48.345 236.419 49.115C237.409 49.8483 238.674 50.215 240.214 50.215C241.754 50.215 242.872 49.9033 243.569 49.28C244.302 48.6567 244.669 47.9417 244.669 47.135C244.669 45.9617 244.155 45.1733 243.129 44.77C242.102 44.33 240.672 43.9083 238.839 43.505C237.665 43.2483 236.474 42.9367 235.264 42.57C234.054 42.2033 232.935 41.745 231.909 41.195C230.919 40.6083 230.112 39.875 229.489 38.995C228.865 38.0783 228.554 36.96 228.554 35.64C228.554 33.22 229.507 31.185 231.414 29.535C233.357 27.885 236.07 27.06 239.554 27.06C242.78 27.06 245.347 27.8117 247.254 29.315C249.197 30.8183 250.352 32.89 250.719 35.53H244.064C243.66 33.5133 242.139 32.505 239.499 32.505C238.179 32.505 237.152 32.7617 236.419 33.275C235.722 33.7883 235.374 34.43 235.374 35.2C235.374 36.0067 235.905 36.6483 236.969 37.125C238.032 37.6017 239.444 38.0417 241.204 38.445C243.11 38.885 244.852 39.38 246.429 39.93C248.042 40.4433 249.325 41.2317 250.279 42.295C251.232 43.3217 251.709 44.8067 251.709 46.75C251.745 48.4367 251.305 49.9583 250.389 51.315C249.472 52.6717 248.152 53.735 246.429 54.505C244.705 55.275 242.67 55.66 240.324 55.66ZM268.175 55.66C264.765 55.66 262.125 54.5967 260.255 52.47C258.422 50.3433 257.505 47.2267 257.505 43.12V27.72H264.49V42.46C264.49 44.8067 264.967 46.6033 265.92 47.85C266.873 49.0967 268.377 49.72 270.43 49.72C272.373 49.72 273.968 49.0233 275.215 47.63C276.498 46.2367 277.14 44.2933 277.14 41.8V27.72H284.18V55H277.965L277.415 50.38C276.572 51.9933 275.343 53.2767 273.73 54.23C272.153 55.1833 270.302 55.66 268.175 55.66ZM291.407 55V27.72H297.622L298.227 31.405C299.107 30.085 300.262 29.04 301.692 28.27C303.159 27.4633 304.845 27.06 306.752 27.06C310.969 27.06 313.957 28.6917 315.717 31.955C316.707 30.4517 318.027 29.26 319.677 28.38C321.364 27.5 323.197 27.06 325.177 27.06C328.734 27.06 331.465 28.1233 333.372 30.25C335.279 32.3767 336.232 35.4933 336.232 39.6V55H329.192V40.26C329.192 37.9133 328.734 36.1167 327.817 34.87C326.937 33.6233 325.562 33 323.692 33C321.785 33 320.245 33.6967 319.072 35.09C317.935 36.4833 317.367 38.4267 317.367 40.92V55H310.327V40.26C310.327 37.9133 309.869 36.1167 308.952 34.87C308.035 33.6233 306.624 33 304.717 33C302.847 33 301.325 33.6967 300.152 35.09C299.015 36.4833 298.447 38.4267 298.447 40.92V55H291.407ZM356.171 55.66C353.421 55.66 350.982 55.0733 348.856 53.9C346.729 52.7267 345.061 51.0767 343.851 48.95C342.641 46.8233 342.036 44.3667 342.036 41.58C342.036 38.7567 342.622 36.245 343.796 34.045C345.006 31.845 346.656 30.14 348.746 28.93C350.872 27.6833 353.366 27.06 356.226 27.06C358.902 27.06 361.267 27.6467 363.321 28.82C365.374 29.9933 366.969 31.6067 368.106 33.66C369.279 35.6767 369.866 37.9317 369.866 40.425C369.866 40.8283 369.847 41.25 369.811 41.69C369.811 42.13 369.792 42.5883 369.756 43.065H349.021C349.167 45.1917 349.901 46.86 351.221 48.07C352.577 49.28 354.209 49.885 356.116 49.885C357.546 49.885 358.737 49.5733 359.691 48.95C360.681 48.29 361.414 47.4467 361.891 46.42H369.041C368.527 48.1433 367.666 49.72 366.456 51.15C365.282 52.5433 363.816 53.6433 362.056 54.45C360.332 55.2567 358.371 55.66 356.171 55.66ZM356.226 32.78C354.502 32.78 352.981 33.275 351.661 34.265C350.341 35.2183 349.497 36.685 349.131 38.665H362.716C362.606 36.8683 361.946 35.4383 360.736 34.375C359.526 33.3117 358.022 32.78 356.226 32.78ZM376.282 55V16.5H380.902V51.315H398.832V55H376.282ZM407.708 21.67C406.792 21.67 406.022 21.3767 405.398 20.79C404.812 20.1667 404.518 19.3967 404.518 18.48C404.518 17.6 404.812 16.8667 405.398 16.28C406.022 15.6933 406.792 15.4 407.708 15.4C408.588 15.4 409.34 15.6933 409.963 16.28C410.587 16.8667 410.898 17.6 410.898 18.48C410.898 19.3967 410.587 20.1667 409.963 20.79C409.34 21.3767 408.588 21.67 407.708 21.67ZM405.398 55V27.72H410.018V55H405.398ZM419.548 55V31.625H415.423V27.72H419.548V22.99C419.548 20.35 420.208 18.425 421.528 17.215C422.848 16.005 424.773 15.4 427.303 15.4H430.053V19.36H428.018C426.624 19.36 425.634 19.6533 425.048 20.24C424.461 20.79 424.168 21.7433 424.168 23.1V27.72H430.878V31.625H424.168V55H419.548ZM447.158 55C444.665 55 442.703 54.395 441.273 53.185C439.843 51.975 439.128 49.7933 439.128 46.64V31.625H434.398V27.72H439.128L439.733 21.175H443.748V27.72H451.778V31.625H443.748V46.64C443.748 48.3633 444.096 49.5367 444.793 50.16C445.49 50.7467 446.718 51.04 448.478 51.04H451.338V55H447.158Z" fill="white"/>
<path d="M72.5336 48.128C72.3155 47.5847 54.2007 10.9058 53.9077 10.4043C52.9536 8.07092 51.2839 6.01616 48.9803 4.644C43.351 1.27283 36.1201 3.2022 32.8215 8.95549C30.5589 12.8978 30.7361 17.6203 32.8897 21.277C33.1078 21.8203 50.4456 56.9251 50.7386 57.4336C50.9567 57.9769 51.2157 58.4993 51.5156 59.0077C52.4697 61.3411 54.1394 63.3958 56.4429 64.768C62.0723 68.1392 69.3032 66.2098 72.6017 60.4565C74.8644 56.5072 74.6804 51.7917 72.5336 48.128Z" fill="#54BAED"/>
<path d="M125.987 45.1236C125.723 44.6016 104.579 9.65713 104.245 9.18335C103.097 6.94285 101.26 5.04302 98.8495 3.87916C92.9565 1.01705 85.9155 3.57698 83.115 9.59974C81.1937 13.7269 81.769 18.4161 84.2233 21.8693C84.4865 22.3913 104.724 55.836 105.059 56.3167C105.322 56.8387 105.624 57.3364 105.966 57.8165C107.113 60.057 108.95 61.9568 111.361 63.1206C117.254 65.9827 124.295 63.4228 127.096 57.4001C129.016 53.2659 128.435 48.5843 125.987 45.1236Z" fill="#54BAED"/>
<path d="M51.6182 23.3037C53.6014 21.1445 54.8145 18.24 54.8145 15.0499C54.8145 8.38415 49.5259 2.97913 43.0038 2.97913C38.9896 2.97913 35.4526 5.0269 33.3194 8.14732C32.9309 8.5722 3.52345 45.6134 3.19632 46.087C1.2131 48.2462 0 51.1507 0 54.3408C0 61.0066 5.28858 66.4116 11.8107 66.4116C15.8248 66.4116 19.3619 64.3638 21.4951 61.2434C21.8835 60.8255 51.291 23.7843 51.6182 23.3037Z" fill="#6ACDFF"/>
<path d="M102.22 23.3037C104.203 21.1445 105.416 18.24 105.416 15.0499C105.416 8.38414 100.127 2.97913 93.6053 2.97913C89.5912 2.97913 86.0541 5.0269 83.921 8.14732C83.5325 8.5722 54.125 45.6134 53.7979 46.087C51.8147 48.2462 50.6016 51.1507 50.6016 54.3408C50.6016 61.0066 55.8901 66.4116 62.4123 66.4116C66.4264 66.4116 69.9635 64.3638 72.0966 61.2434C72.4851 60.8255 101.893 23.7843 102.22 23.3037Z" fill="#6ACDFF"/>
<path d="M156.618 23.3246C158.601 21.1653 159.814 18.2608 159.814 15.0708C159.814 8.40502 154.526 3 148.004 3C143.99 3 140.453 5.04777 138.319 8.1682C137.931 8.59308 108.523 45.6342 108.196 46.1079C106.213 48.2671 105 51.1716 105 54.3617C105 61.0274 110.289 66.4324 116.811 66.4324C120.825 66.4324 124.362 64.3847 126.495 61.2643C126.884 60.8463 156.291 23.8052 156.618 23.3246Z" fill="#6ACDFF"/>
<path d="M132.618 53.3246C134.601 51.1653 135.814 48.2608 135.814 45.0708C135.814 38.405 130.526 33 124.004 33C119.99 33 116.453 35.0478 114.319 38.1682C113.931 38.5931 84.5234 75.6342 84.1963 76.1079C82.2131 78.2671 81 81.1716 81 84.3617C81 91.0274 86.2886 96.4324 92.8107 96.4324C96.8248 96.4324 100.362 94.3847 102.495 91.2643C102.884 90.8463 132.291 53.8052 132.618 53.3246Z" fill="#6ACDFF"/>
</svg>
