<svg width="56" height="60" viewBox="0 0 56 60" fill="none" xmlns="http://www.w3.org/2000/svg">
<circle cx="28" cy="28" r="28" fill="white"/>
<path d="M37.5443 20H12.1299V25.4771H8V40.013H12.1281V60H44.4977V26.4725L37.5443 20ZM29.8447 32.1279V33.3189H26.8821V36.3276H25.4521V29.2665H30.3196V30.461H26.8821V32.128H29.8447V32.1279ZM24.2361 32.8654C24.2361 33.447 24.163 33.9473 24.0187 34.3679C23.8412 34.8803 23.5855 35.2975 23.2602 35.6143C23.0079 35.8601 22.6774 36.0453 22.2581 36.1786C21.9345 36.2773 21.5136 36.3292 20.9881 36.3292H18.2951V29.2664H20.9081C21.4978 29.2664 21.9501 29.3097 22.2597 29.3997C22.6738 29.5244 23.0286 29.739 23.3244 30.0506C23.6219 30.3623 23.8462 30.7396 24.0045 31.1949C24.1595 31.6501 24.2361 32.2023 24.2361 32.8654ZM13.1145 33.6634V36.331H11.6845V36.3292V29.2664H13.9791C14.8489 29.2664 15.416 29.3028 15.677 29.3737C16.0805 29.481 16.4268 29.7096 16.6964 30.0592C16.9747 30.4175 17.1104 30.8763 17.1104 31.4337C17.1104 31.8699 17.0321 32.23 16.8738 32.526C16.7173 32.8272 16.5172 33.0557 16.2701 33.2271C16.0318 33.3915 15.7865 33.5058 15.536 33.5577C15.1898 33.6235 14.701 33.6633 14.0521 33.6633H13.1145V33.6634ZM42.1492 57.6527C40.065 57.6527 16.559 57.6527 14.4784 57.6527C14.4784 56.5915 14.4784 48.3049 14.4784 40.013H34.206V25.4771H14.4802C14.4802 23.8292 14.4802 22.6883 14.4802 22.3387C16.5573 22.3387 35.7699 22.3387 36.6206 22.3387C37.1842 22.8684 41.5299 26.9104 42.1526 27.4869C42.1492 28.4373 42.1492 55.5234 42.1492 57.6527Z" fill="#3A8DB7"/>
<path d="M22.2045 30.8625C22.0305 30.6963 21.8113 30.589 21.5452 30.5319C21.34 30.4852 20.9537 30.4626 20.3727 30.4626H19.729V35.1349H20.7936C21.192 35.1349 21.4791 35.1141 21.6583 35.0674C21.8931 35.0102 22.0845 34.9081 22.2358 34.7731C22.3923 34.6346 22.5141 34.4096 22.6133 34.0945C22.709 33.776 22.7594 33.3432 22.7594 32.7996C22.7594 32.2595 22.7107 31.8354 22.6133 31.548C22.5124 31.2538 22.3767 31.027 22.2045 30.8625Z" fill="#3A8DB7"/>
<path d="M15.4023 30.8244C15.2527 30.6582 15.0597 30.5561 14.8283 30.5111C14.663 30.4782 14.3151 30.4626 13.8036 30.4626H13.1147V32.4655H13.8907C14.456 32.4655 14.8301 32.4309 15.0197 32.3546C15.211 32.2819 15.3606 32.1677 15.4702 32.0101C15.5781 31.8526 15.6285 31.6708 15.6285 31.4596C15.6302 31.2053 15.5606 30.9941 15.4023 30.8244Z" fill="#3A8DB7"/>
</svg>
