<svg width="56" height="60" viewBox="0 0 56 60" fill="none" xmlns="http://www.w3.org/2000/svg">
<circle cx="28" cy="28" r="28" fill="white"/>
<path d="M13.3553 57.6563V22.3437H33.6921V23.9516H30.3287C29.6783 23.9516 29.151 24.4763 29.151 25.1235V42.4551C29.151 43.1023 29.6783 43.6269 30.3287 43.6269H39.4101C40.0605 43.6269 40.5878 43.1023 40.5878 42.4551V32.0308H42.4665V57.6563H13.3553ZM36.0474 29.6871V24.2224L40.9973 29.6871H36.0474ZM34.8698 32.0308H38.2324V41.2832H31.5064V26.2954H33.6921V30.8589C33.6921 31.5061 34.2194 32.0308 34.8698 32.0308ZM44.5189 30.0743L35.7445 20.3873C35.5213 20.1408 35.2033 20 34.8698 20H12.1777C11.5273 20 11 20.5247 11 21.1719V58.8281C11 59.4753 11.5273 60 12.1777 60H43.6442C44.2946 60 44.8219 59.4753 44.8219 58.8281V30.8589C44.8219 30.5692 44.714 30.2896 44.5189 30.0743" fill="#3A8DB7"/>
<path d="M24.3148 53.7045H17.5887V38.7171H24.3148V53.7045ZM25.4925 36.3734H16.4111C15.761 36.3734 15.2334 36.8976 15.2334 37.5452V54.8764C15.2334 55.5241 15.761 56.0483 16.4111 56.0483H25.4925C26.1425 56.0483 26.6701 55.5241 26.6701 54.8764V37.5452C26.6701 36.8976 26.1425 36.3734 25.4925 36.3734Z" fill="#3A8DB7"/>
<path d="M24.3148 31.5163H17.5887V26.2953H24.3148V31.5163ZM25.4925 23.9515H16.4111C15.761 23.9515 15.2334 24.4758 15.2334 25.1234V32.6882C15.2334 33.3351 15.761 33.8601 16.4111 33.8601H25.4925C26.1425 33.8601 26.6701 33.3351 26.6701 32.6882V25.1234C26.6701 24.4758 26.1425 23.9515 25.4925 23.9515Z" fill="#3A8DB7"/>
<path d="M38.2315 53.7046H31.5062V48.4836H38.2315V53.7046ZM39.4092 46.1398H30.3285C29.6777 46.1398 29.1509 46.664 29.1509 47.3117V54.8765C29.1509 55.5234 29.6777 56.0484 30.3285 56.0484H39.4092C40.0592 56.0484 40.5868 55.5234 40.5868 54.8765V47.3117C40.5868 46.664 40.0592 46.1398 39.4092 46.1398Z" fill="#3A8DB7"/>
</svg>
