<svg width="56" height="60" viewBox="0 0 56 60" fill="none" xmlns="http://www.w3.org/2000/svg">
<circle cx="28" cy="28" r="28" fill="white"/>
<path d="M17.8762 20L15.995 22.8571H10.8218C9.25851 22.8571 8 24.1314 8 25.7143V57.1429C8 58.7257 9.25851 60 10.8218 60H36.2178C37.781 60 39.0395 58.7257 39.0395 57.1429V44.2857L36.2178 47.1429V57.1429H10.8218V25.7143H14.1139L12.2327 28.5714H34.8069L32.9256 25.7143H36.2178V27.1429L38.7907 24.5377C38.3493 23.5452 37.3661 22.8571 36.2178 22.8571H31.0446L29.1633 20H17.8762ZM19.2871 22.8571H27.7524L29.1633 25.7143H17.8762L19.2871 22.8571Z" fill="#3A8DB7"/>
<path fill-rule="evenodd" clip-rule="evenodd" d="M12.2334 41.4285L23.5205 52.8571L47.5056 28.5714L44.6838 24.2856L23.5205 45.7142L16.4661 38.5714L12.2334 41.4285Z" fill="#3A8DB7"/>
</svg>
